SplineFontDB: 3.2
FontName: Essiah
FullName: Essiah
FamilyName: Essiah
Weight: Book
Copyright: Copyright (c) 2023, Michael Chapman
Version: 001.000
DefaultBaseFilename: essiah
ItalicAngle: 0
UnderlinePosition: 0
UnderlineWidth: 0
Ascent: 512
Descent: 512
InvalidEm: 0
sfntRevision: 0x00010000
LayerCount: 2
Layer: 0 1 "Back" 1
Layer: 1 1 "Fore" 0
XUID: [1021 96 -335474456 12931914]
StyleMap: 0x0040
FSType: 0
OS2Version: 4
OS2_WeightWidthSlopeOnly: 0
OS2_UseTypoMetrics: 1
CreationTime: 1701637513
ModificationTime: 1731424824
PfmFamily: 17
TTFWeight: 400
TTFWidth: 5
LineGap: 0
VLineGap: 0
Panose: 2 0 5 3 0 0 0 0 0 0
OS2TypoAscent: 512
OS2TypoAOffset: 0
OS2TypoDescent: -512
OS2TypoDOffset: 0
OS2TypoLinegap: 0
OS2WinAscent: 512
OS2WinAOffset: 0
OS2WinDescent: -512
OS2WinDOffset: 0
HheadAscent: 512
HheadAOffset: 0
HheadDescent: -512
HheadDOffset: 0
OS2SubXSize: 256
OS2SubYSize: 256
OS2SubXOff: 0
OS2SubYOff: 128
OS2SupXSize: 256
OS2SupYSize: 256
OS2SupXOff: 0
OS2SupYOff: 768
OS2StrikeYSize: 64
OS2StrikeYPos: 0
OS2CapHeight: 448
OS2XHeight: 448
OS2Vendor: 'PfEd'
OS2CodePages: 00000001.00000000
OS2UnicodeRanges: 00000003.00000000.00000000.00000000
MarkAttachClasses: 1
DEI: 91125
ShortTable: cvt  2
  34
  648
EndShort
ShortTable: maxp 16
  1
  0
  120
  16
  5
  0
  0
  2
  0
  1
  1
  0
  64
  46
  0
  0
EndShort
LangName: 1033 "" "" "Regular" "FontForge : Essiah : 21-7-2024" "" "Version 001.000"
GaspTable: 1 65535 2 0
Encoding: UnicodeBmp
UnicodeInterp: none
NameList: AGL For New Fonts
DisplaySize: -48
AntiAlias: 1
FitToEm: 0
WinInfo: 16 16 10
BeginPrivate: 0
EndPrivate
Grid
256 0 m 4
 256 -141 371 -256 512 -256 c 4
 653 -256 768 -141 768 0 c 4
 768 141 653 256 512 256 c 4
 371 256 256 141 256 0 c 4
128 0 m 4
 128 212 300 384 512 384 c 4
 724 384 896 212 896 0 c 4
 896 -212 724 -384 512 -384 c 4
 300 -384 128 -212 128 0 c 4
1024 -512 m 1
 0 512 l 1025
0 -512 m 1
 1024 512 l 1025
0 -64 m 25
 1024 -64 l 1049
0 64 m 25
 1024 64 l 1049
448 -512 m 25
 448 512 l 1049

StartChar: .notdef
Encoding: 65536 -1 0
Width: 491
VWidth: 1351
GlyphClass: 1
Flags: W
LayerCount: 2
Fore
SplineSet
45 0 m 1,0,-1
 45 900 l 1,1,-1
 404 900 l 1,2,-1
 404 0 l 1,3,-1
 45 0 l 1,0,-1
90 45 m 1,4,-1
 359 45 l 1,5,-1
 359 855 l 1,6,-1
 90 855 l 1,7,-1
 90 45 l 1,4,-1
EndSplineSet
Validated: 1
EndChar

StartChar: eth
Encoding: 240 240 4
Width: 1024
VWidth: 1689
Flags: W
LayerCount: 2
Fore
SplineSet
576 -64 m 5,0,-1
 576 -385 l 5,1,-1
 448 -384 l 5,2,-1
 448 -64 l 5,3,-1
 127 -64 l 5,4,-1
 128 64 l 5,5,-1
 448 64 l 5,6,-1
 448 256 l 5,7,-1
 448 384 l 5,8,-1
 512 384 l 6,9,10
 672 384 672 384 784 272 c 5,11,-1
 693 181 l 5,12,13
 642 232 642 232 576 248 c 5,14,-1
 576 64 l 5,15,-1
 896 64 l 5,16,-1
 896 -64 l 5,17,-1
 576 -64 l 5,0,-1
EndSplineSet
Validated: 1
EndChar

StartChar: ntilde
Encoding: 241 241 5
Width: 1024
VWidth: 1689
Flags: W
LayerCount: 2
Fore
SplineSet
575 64 m 5,0,-1
 896 64 l 5,1,-1
 895 -64 l 5,2,-1
 575 -64 l 5,3,-1
 575 -385 l 5,4,-1
 447 -384 l 5,5,-1
 447 -64 l 5,6,-1
 255 -64 l 5,7,-1
 127 -64 l 5,8,-1
 127 0 l 6,9,10
 127 160 127 160 239 272 c 5,11,-1
 330 181 l 5,12,13
 279 130 279 130 263 64 c 5,14,-1
 447 64 l 5,15,-1
 447 384 l 5,16,-1
 575 384 l 5,17,-1
 575 64 l 5,0,-1
EndSplineSet
Validated: 1
EndChar

StartChar: ograve
Encoding: 242 242 6
Width: 1024
VWidth: 1689
Flags: W
LayerCount: 2
Fore
SplineSet
447 63 m 5,0,-1
 447 384 l 5,1,-1
 575 383 l 5,2,-1
 575 63 l 5,3,-1
 896 63 l 5,4,-1
 895 -65 l 5,5,-1
 575 -65 l 5,6,-1
 575 -257 l 5,7,-1
 575 -385 l 5,8,-1
 511 -385 l 6,9,10
 351 -385 351 -385 239 -273 c 5,11,-1
 330 -182 l 5,12,13
 381 -233 381 -233 447 -249 c 5,14,-1
 447 -65 l 5,15,-1
 127 -65 l 5,16,-1
 127 63 l 5,17,-1
 447 63 l 5,0,-1
EndSplineSet
Validated: 1
EndChar

StartChar: oacute
Encoding: 243 243 7
Width: 1024
VWidth: 1689
Flags: W
LayerCount: 2
Fore
SplineSet
448 -65 m 5,0,-1
 127 -65 l 5,1,-1
 128 63 l 5,2,-1
 448 63 l 5,3,-1
 448 384 l 5,4,-1
 576 383 l 5,5,-1
 576 63 l 5,6,-1
 768 63 l 5,7,-1
 896 63 l 5,8,-1
 896 -1 l 6,9,10
 896 -161 896 -161 784 -273 c 5,11,-1
 693 -182 l 5,12,13
 744 -131 744 -131 760 -65 c 5,14,-1
 576 -65 l 5,15,-1
 576 -385 l 5,16,-1
 448 -385 l 5,17,-1
 448 -65 l 5,0,-1
EndSplineSet
Validated: 1
EndChar

StartChar: ocircumflex
Encoding: 244 244 8
Width: 1024
VWidth: 1689
Flags: W
LayerCount: 2
Fore
SplineSet
448 -64 m 1,0,-1
 127 -64 l 1,1,-1
 128 64 l 1,2,-1
 448 64 l 1,3,-1
 448 256 l 1,4,-1
 448 384 l 1,5,-1
 512 384 l 2,6,7
 672 384 672 384 784 272 c 1,8,-1
 693 181 l 1,9,10
 642 232 642 232 576 248 c 1,11,-1
 576 64 l 1,12,-1
 768 64 l 1,13,-1
 896 64 l 1,14,-1
 896 0 l 2,15,16
 896 -160 896 -160 784 -272 c 1,17,-1
 693 -181 l 1,18,19
 744 -130 744 -130 760 -64 c 1,20,-1
 576 -64 l 1,21,-1
 576 -385 l 1,22,-1
 448 -384 l 1,23,-1
 448 -64 l 1,0,-1
EndSplineSet
Validated: 1025
EndChar

StartChar: oslash
Encoding: 248 248 9
Width: 1024
VWidth: 1689
Flags: W
LayerCount: 2
Fore
SplineSet
448 64 m 5,0,-1
 448 256 l 5,1,-1
 448 384 l 5,2,-1
 512 384 l 6,3,4
 672 384 672 384 784 272 c 5,5,-1
 693 181 l 5,6,7
 642 232 642 232 576 248 c 5,8,-1
 576 64 l 5,9,-1
 768 64 l 5,10,-1
 896 64 l 5,11,-1
 896 0 l 6,12,13
 896 -160 896 -160 784 -272 c 5,14,-1
 693 -181 l 5,15,16
 744 -130 744 -130 760 -64 c 5,17,-1
 576 -64 l 5,18,-1
 576 -256 l 5,19,-1
 576 -384 l 5,20,-1
 512 -384 l 6,21,22
 352 -384 352 -384 240 -272 c 5,23,-1
 331 -181 l 5,24,25
 382 -232 382 -232 448 -248 c 5,26,-1
 448 -64 l 5,27,-1
 127 -64 l 5,28,-1
 128 64 l 5,29,-1
 448 64 l 5,0,-1
EndSplineSet
Validated: 1025
EndChar

StartChar: otilde
Encoding: 245 245 10
Width: 1024
VWidth: 1689
Flags: W
LayerCount: 2
Fore
SplineSet
575 -64 m 1,0,-1
 575 -385 l 1,1,-1
 447 -384 l 1,2,-1
 447 -64 l 1,3,-1
 255 -64 l 1,4,-1
 127 -64 l 1,5,-1
 127 0 l 2,6,7
 127 160 127 160 239 272 c 1,8,-1
 330 181 l 1,9,10
 279 130 279 130 263 64 c 1,11,-1
 447 64 l 1,12,-1
 447 256 l 1,13,-1
 447 384 l 1,14,-1
 511 384 l 2,15,16
 671 384 671 384 783 272 c 1,17,-1
 692 181 l 1,18,19
 641 232 641 232 575 248 c 1,20,-1
 575 64 l 1,21,-1
 896 64 l 1,22,-1
 895 -64 l 1,23,-1
 575 -64 l 1,0,-1
EndSplineSet
Validated: 1025
EndChar

StartChar: odieresis
Encoding: 246 246 11
Width: 1024
VWidth: 1689
Flags: W
LayerCount: 2
Fore
SplineSet
575 63 m 1,0,-1
 896 63 l 1,1,-1
 895 -65 l 1,2,-1
 575 -65 l 1,3,-1
 575 -257 l 1,4,-1
 575 -385 l 1,5,-1
 511 -385 l 2,6,7
 351 -385 351 -385 239 -273 c 1,8,-1
 330 -182 l 1,9,10
 381 -233 381 -233 447 -249 c 1,11,-1
 447 -65 l 1,12,-1
 255 -65 l 1,13,-1
 127 -65 l 1,14,-1
 127 -1 l 2,15,16
 127 159 127 159 239 271 c 1,17,-1
 330 180 l 1,18,19
 279 129 279 129 263 63 c 1,20,-1
 447 63 l 1,21,-1
 447 384 l 1,22,-1
 575 383 l 1,23,-1
 575 63 l 1,0,-1
EndSplineSet
Validated: 1025
EndChar

StartChar: divide
Encoding: 247 247 12
Width: 1024
VWidth: 1689
Flags: W
LayerCount: 2
Fore
SplineSet
448 63 m 1,0,-1
 448 384 l 1,1,-1
 576 383 l 1,2,-1
 576 63 l 1,3,-1
 768 63 l 1,4,-1
 896 63 l 1,5,-1
 896 -1 l 2,6,7
 896 -161 896 -161 784 -273 c 1,8,-1
 693 -182 l 1,9,10
 744 -131 744 -131 760 -65 c 1,11,-1
 576 -65 l 1,12,-1
 576 -257 l 1,13,-1
 576 -385 l 1,14,-1
 512 -385 l 2,15,16
 352 -385 352 -385 240 -273 c 1,17,-1
 331 -182 l 1,18,19
 382 -233 382 -233 448 -249 c 1,20,-1
 448 -65 l 1,21,-1
 127 -65 l 1,22,-1
 128 63 l 1,23,-1
 448 63 l 1,0,-1
EndSplineSet
Validated: 1025
EndChar

StartChar: ugrave
Encoding: 249 249 13
Width: 1024
VWidth: 1689
Flags: W
LayerCount: 2
Fore
SplineSet
448 -64 m 5,0,-1
 256 -64 l 5,1,-1
 128 -64 l 5,2,-1
 128 0 l 6,3,4
 128 160 128 160 240 272 c 5,5,-1
 330 182 l 5,6,7
 280 130 280 130 264 64 c 5,8,-1
 448 64 l 5,9,-1
 448 256 l 5,10,-1
 448 384 l 5,11,-1
 512 384 l 6,12,13
 672 384 672 384 784 272 c 5,14,-1
 692 182 l 5,15,16
 642 232 642 232 576 248 c 5,17,-1
 576 64 l 5,18,-1
 768 64 l 5,19,-1
 896 64 l 5,20,-1
 896 0 l 6,21,22
 896 -160 896 -160 784 -272 c 5,23,-1
 692 -180 l 5,24,25
 744 -130 744 -130 760 -64 c 5,26,-1
 576 -64 l 5,27,-1
 576 -384 l 5,28,-1
 448 -384 l 5,29,-1
 448 -64 l 5,0,-1
EndSplineSet
Validated: 1025
EndChar

StartChar: uacute
Encoding: 250 250 14
Width: 1024
VWidth: 1689
Flags: W
LayerCount: 2
Fore
SplineSet
576 -64 m 5,0,-1
 576 -256 l 5,1,-1
 576 -384 l 5,2,-1
 512 -384 l 6,3,4
 352 -384 352 -384 240 -272 c 5,5,-1
 330 -182 l 5,6,7
 382 -232 382 -232 448 -248 c 5,8,-1
 448 -64 l 5,9,-1
 256 -64 l 5,10,-1
 128 -64 l 5,11,-1
 128 0 l 6,12,13
 128 160 128 160 240 272 c 5,14,-1
 330 180 l 5,15,16
 280 130 280 130 264 64 c 5,17,-1
 448 64 l 5,18,-1
 448 256 l 5,19,-1
 448 384 l 5,20,-1
 512 384 l 6,21,22
 672 384 672 384 784 272 c 5,23,-1
 692 180 l 5,24,25
 642 232 642 232 576 248 c 5,26,-1
 576 64 l 5,27,-1
 896 64 l 5,28,-1
 896 -64 l 5,29,-1
 576 -64 l 5,0,-1
EndSplineSet
Validated: 1025
EndChar

StartChar: ucircumflex
Encoding: 251 251 15
Width: 1024
VWidth: 1689
Flags: W
LayerCount: 2
Fore
SplineSet
576 64 m 5,0,-1
 768 64 l 5,1,-1
 896 64 l 5,2,-1
 896 0 l 6,3,4
 896 -160 896 -160 784 -272 c 5,5,-1
 694 -182 l 5,6,7
 744 -130 744 -130 760 -64 c 5,8,-1
 576 -64 l 5,9,-1
 576 -256 l 5,10,-1
 576 -384 l 5,11,-1
 512 -384 l 6,12,13
 352 -384 352 -384 240 -272 c 5,14,-1
 332 -182 l 5,15,16
 382 -232 382 -232 448 -248 c 5,17,-1
 448 -64 l 5,18,-1
 256 -64 l 5,19,-1
 128 -64 l 5,20,-1
 128 0 l 6,21,22
 128 160 128 160 240 272 c 5,23,-1
 332 180 l 5,24,25
 280 130 280 130 264 64 c 5,26,-1
 448 64 l 5,27,-1
 448 384 l 5,28,-1
 576 384 l 5,29,-1
 576 64 l 5,0,-1
EndSplineSet
Validated: 1025
EndChar

StartChar: udieresis
Encoding: 252 252 16
Width: 1024
VWidth: 1689
Flags: W
LayerCount: 2
Fore
SplineSet
576 64 m 5,0,-1
 768 64 l 5,1,-1
 896 64 l 5,2,-1
 896 0 l 6,3,4
 896 -160 896 -160 784 -272 c 5,5,-1
 693 -181 l 5,6,7
 744 -130 744 -130 760 -64 c 5,8,-1
 576 -64 l 5,9,-1
 576 -384 l 5,10,-1
 448 -384 l 5,11,-1
 448 -64 l 5,12,-1
 256 -64 l 5,13,-1
 128 -64 l 5,14,-1
 128 0 l 6,15,16
 128 160 128 160 240 272 c 5,17,-1
 331 181 l 5,18,19
 280 130 280 130 264 64 c 5,20,-1
 448 64 l 5,21,-1
 448 384 l 5,22,-1
 576 384 l 5,23,-1
 576 64 l 5,0,-1
EndSplineSet
Validated: 1025
EndChar

StartChar: yacute
Encoding: 253 253 17
Width: 1024
VWidth: 1689
Flags: W
LayerCount: 2
Fore
SplineSet
576 -64 m 5,0,-1
 576 -256 l 5,1,-1
 576 -384 l 5,2,-1
 512 -384 l 6,3,4
 352 -384 352 -384 240 -272 c 5,5,-1
 331 -181 l 5,6,7
 382 -232 382 -232 448 -248 c 5,8,-1
 448 -64 l 5,9,-1
 128 -64 l 5,10,-1
 128 64 l 5,11,-1
 448 64 l 5,12,-1
 448 256 l 5,13,-1
 448 384 l 5,14,-1
 512 384 l 6,15,16
 672 384 672 384 784 272 c 5,17,-1
 693 181 l 5,18,19
 642 232 642 232 576 248 c 5,20,-1
 576 64 l 5,21,-1
 896 64 l 5,22,-1
 896 -64 l 5,23,-1
 576 -64 l 5,0,-1
EndSplineSet
Validated: 1025
EndChar

StartChar: thorn
Encoding: 254 254 18
Width: 1024
VWidth: 1689
Flags: W
LayerCount: 2
Fore
SplineSet
896 0 m 6,0,1
 896 -160 896 -160 784 -272 c 5,2,-1
 693 -181 l 5,3,4
 744 -130 744 -130 760 -64 c 5,5,-1
 576 -64 l 5,6,-1
 576 -256 l 5,7,-1
 576 -384 l 5,8,-1
 512 -384 l 6,9,10
 352 -384 352 -384 240 -272 c 5,11,-1
 331 -181 l 5,12,13
 382 -232 382 -232 448 -248 c 5,14,-1
 448 -64 l 5,15,-1
 256 -64 l 5,16,-1
 128 -64 l 5,17,-1
 128 0 l 6,18,19
 128 160 128 160 240 272 c 5,20,-1
 331 181 l 5,21,22
 280 130 280 130 264 64 c 5,23,-1
 448 64 l 5,24,-1
 448 256 l 5,25,-1
 448 384 l 5,26,-1
 512 384 l 6,27,28
 672 384 672 384 784 272 c 5,29,-1
 693 181 l 5,30,31
 642 232 642 232 576 248 c 5,32,-1
 576 64 l 5,33,-1
 768 64 l 5,34,-1
 896 64 l 5,35,-1
 896 0 l 6,0,1
EndSplineSet
Validated: 1025
EndChar

StartChar: ydieresis
Encoding: 255 255 19
Width: 1024
VWidth: 1689
Flags: W
LayerCount: 2
Fore
SplineSet
128 0 m 2,0,1
 128 0 128 0 128 64 c 1,2,-1
 256 64 l 1,3,-1
 448 64 l 1,4,-1
 448 248 l 1,5,6
 382 232 382 232 331 181 c 1,7,8
 331 181 331 181 240 272 c 1,9,10
 352 384 352 384 512 384 c 2,11,12
 512 384 512 384 576 384 c 1,13,-1
 576 256 l 1,14,-1
 576 64 l 1,15,-1
 760 64 l 1,16,17
 744 130 744 130 693 181 c 1,18,19
 693 181 693 181 784 272 c 1,20,21
 896 160 896 160 896 0 c 2,22,23
 896 0 896 0 896 -64 c 1,24,-1
 768 -64 l 1,25,-1
 576 -64 l 1,26,-1
 576 -248 l 1,27,28
 642 -232 642 -232 693 -181 c 1,29,30
 693 -181 693 -181 784 -272 c 1,31,32
 672 -384 672 -384 512 -384 c 2,33,34
 512 -384 512 -384 448 -384 c 1,35,-1
 448 -256 l 1,36,-1
 448 -64 l 1,37,-1
 264 -64 l 1,38,39
 280 -130 280 -130 331 -181 c 1,40,41
 331 -181 331 -181 240 -272 c 1,42,43
 128 -160 128 -160 128 0 c 2,0,1
EndSplineSet
Validated: 1025
EndChar

StartChar: Amacron
Encoding: 256 256 20
Width: 1024
VWidth: 1689
Flags: W
LayerCount: 2
Fore
SplineSet
576 256 m 5,0,-1
 512 256 l 6,1,2
 406 256 406 256 331 181 c 132,-1,3
 256 106 256 106 256 0 c 132,-1,4
 256 -106 256 -106 331 -181 c 132,-1,5
 406 -256 406 -256 512 -256 c 6,6,-1
 576 -256 l 5,7,-1
 576 -384 l 5,8,-1
 512 -384 l 6,9,10
 353 -384 353 -384 240.5 -271.5 c 132,-1,11
 128 -159 128 -159 128 0 c 132,-1,12
 128 159 128 159 240.5 271.5 c 132,-1,13
 353 384 353 384 512 384 c 6,14,-1
 576 384 l 5,15,-1
 896 384 l 5,16,-1
 896 256 l 5,17,-1
 576 256 l 5,0,-1
EndSplineSet
Validated: 1
EndChar

StartChar: zero
Encoding: 48 48 21
Width: 1024
VWidth: 1689
Flags: W
LayerCount: 2
Fore
SplineSet
576 -64 m 5,0,-1
 576 -385 l 5,1,-1
 448 -384 l 5,2,-1
 448 -64 l 5,3,-1
 127 -64 l 5,4,-1
 128 64 l 5,5,-1
 448 64 l 5,6,-1
 448 256 l 5,7,-1
 448 384 l 5,8,-1
 512 384 l 6,9,10
 672 384 672 384 784 272 c 5,11,-1
 693 181 l 5,12,13
 642 232 642 232 576 248 c 5,14,-1
 576 64 l 5,15,-1
 896 64 l 5,16,-1
 896 -64 l 5,17,-1
 576 -64 l 5,0,-1
EndSplineSet
Validated: 1
EndChar

StartChar: one
Encoding: 49 49 22
Width: 1024
VWidth: 1689
Flags: W
LayerCount: 2
Fore
SplineSet
575 64 m 5,0,-1
 896 64 l 5,1,-1
 895 -64 l 5,2,-1
 575 -64 l 5,3,-1
 575 -385 l 5,4,-1
 447 -384 l 5,5,-1
 447 -64 l 5,6,-1
 255 -64 l 5,7,-1
 127 -64 l 5,8,-1
 127 0 l 6,9,10
 127 160 127 160 239 272 c 5,11,-1
 330 181 l 5,12,13
 279 130 279 130 263 64 c 5,14,-1
 447 64 l 5,15,-1
 447 384 l 5,16,-1
 575 384 l 5,17,-1
 575 64 l 5,0,-1
EndSplineSet
Validated: 1
EndChar

StartChar: two
Encoding: 50 50 23
Width: 1024
VWidth: 1689
Flags: W
LayerCount: 2
Fore
SplineSet
447 63 m 5,0,-1
 447 384 l 5,1,-1
 575 383 l 5,2,-1
 575 63 l 5,3,-1
 896 63 l 5,4,-1
 895 -65 l 5,5,-1
 575 -65 l 5,6,-1
 575 -257 l 5,7,-1
 575 -385 l 5,8,-1
 511 -385 l 6,9,10
 351 -385 351 -385 239 -273 c 5,11,-1
 330 -182 l 5,12,13
 381 -233 381 -233 447 -249 c 5,14,-1
 447 -65 l 5,15,-1
 127 -65 l 5,16,-1
 127 63 l 5,17,-1
 447 63 l 5,0,-1
EndSplineSet
Validated: 1
EndChar

StartChar: three
Encoding: 51 51 24
Width: 1024
VWidth: 1689
Flags: W
LayerCount: 2
Fore
SplineSet
448 -65 m 5,0,-1
 127 -65 l 5,1,-1
 128 63 l 5,2,-1
 448 63 l 5,3,-1
 448 384 l 5,4,-1
 576 383 l 5,5,-1
 576 63 l 5,6,-1
 768 63 l 5,7,-1
 896 63 l 5,8,-1
 896 -1 l 6,9,10
 896 -161 896 -161 784 -273 c 5,11,-1
 693 -182 l 5,12,13
 744 -131 744 -131 760 -65 c 5,14,-1
 576 -65 l 5,15,-1
 576 -385 l 5,16,-1
 448 -385 l 5,17,-1
 448 -65 l 5,0,-1
EndSplineSet
Validated: 1
EndChar

StartChar: four
Encoding: 52 52 25
Width: 1024
VWidth: 1689
Flags: W
LayerCount: 2
Fore
SplineSet
448 -64 m 1,0,-1
 127 -64 l 1,1,-1
 128 64 l 1,2,-1
 448 64 l 1,3,-1
 448 256 l 1,4,-1
 448 384 l 1,5,-1
 512 384 l 2,6,7
 672 384 672 384 784 272 c 1,8,-1
 693 181 l 1,9,10
 642 232 642 232 576 248 c 1,11,-1
 576 64 l 1,12,-1
 768 64 l 1,13,-1
 896 64 l 1,14,-1
 896 0 l 2,15,16
 896 -160 896 -160 784 -272 c 1,17,-1
 693 -181 l 1,18,19
 744 -130 744 -130 760 -64 c 1,20,-1
 576 -64 l 1,21,-1
 576 -385 l 1,22,-1
 448 -384 l 1,23,-1
 448 -64 l 1,0,-1
EndSplineSet
Validated: 1025
EndChar

StartChar: five
Encoding: 53 53 26
Width: 1024
VWidth: 1689
Flags: W
LayerCount: 2
Fore
SplineSet
575 -64 m 1,0,-1
 575 -385 l 1,1,-1
 447 -384 l 1,2,-1
 447 -64 l 1,3,-1
 255 -64 l 1,4,-1
 127 -64 l 1,5,-1
 127 0 l 2,6,7
 127 160 127 160 239 272 c 1,8,-1
 330 181 l 1,9,10
 279 130 279 130 263 64 c 1,11,-1
 447 64 l 1,12,-1
 447 256 l 1,13,-1
 447 384 l 1,14,-1
 511 384 l 2,15,16
 671 384 671 384 783 272 c 1,17,-1
 692 181 l 1,18,19
 641 232 641 232 575 248 c 1,20,-1
 575 64 l 1,21,-1
 896 64 l 1,22,-1
 895 -64 l 1,23,-1
 575 -64 l 1,0,-1
EndSplineSet
Validated: 1025
EndChar

StartChar: six
Encoding: 54 54 27
Width: 1024
VWidth: 1689
Flags: W
LayerCount: 2
Fore
SplineSet
575 63 m 1,0,-1
 896 63 l 1,1,-1
 895 -65 l 1,2,-1
 575 -65 l 1,3,-1
 575 -257 l 1,4,-1
 575 -385 l 1,5,-1
 511 -385 l 2,6,7
 351 -385 351 -385 239 -273 c 1,8,-1
 330 -182 l 1,9,10
 381 -233 381 -233 447 -249 c 1,11,-1
 447 -65 l 1,12,-1
 255 -65 l 1,13,-1
 127 -65 l 1,14,-1
 127 -1 l 2,15,16
 127 159 127 159 239 271 c 1,17,-1
 330 180 l 1,18,19
 279 129 279 129 263 63 c 1,20,-1
 447 63 l 1,21,-1
 447 384 l 1,22,-1
 575 383 l 1,23,-1
 575 63 l 1,0,-1
EndSplineSet
Validated: 1025
EndChar

StartChar: seven
Encoding: 55 55 28
Width: 1024
VWidth: 1689
Flags: W
LayerCount: 2
Fore
SplineSet
448 63 m 1,0,-1
 448 384 l 1,1,-1
 576 383 l 1,2,-1
 576 63 l 1,3,-1
 768 63 l 1,4,-1
 896 63 l 1,5,-1
 896 -1 l 2,6,7
 896 -161 896 -161 784 -273 c 1,8,-1
 693 -182 l 1,9,10
 744 -131 744 -131 760 -65 c 1,11,-1
 576 -65 l 1,12,-1
 576 -257 l 1,13,-1
 576 -385 l 1,14,-1
 512 -385 l 2,15,16
 352 -385 352 -385 240 -273 c 1,17,-1
 331 -182 l 1,18,19
 382 -233 382 -233 448 -249 c 1,20,-1
 448 -65 l 1,21,-1
 127 -65 l 1,22,-1
 128 63 l 1,23,-1
 448 63 l 1,0,-1
EndSplineSet
Validated: 1025
EndChar

StartChar: eight
Encoding: 56 56 29
Width: 1024
VWidth: 1689
Flags: W
LayerCount: 2
Fore
SplineSet
448 64 m 5,0,-1
 448 256 l 5,1,-1
 448 384 l 5,2,-1
 512 384 l 6,3,4
 672 384 672 384 784 272 c 5,5,-1
 693 181 l 5,6,7
 642 232 642 232 576 248 c 5,8,-1
 576 64 l 5,9,-1
 768 64 l 5,10,-1
 896 64 l 5,11,-1
 896 0 l 6,12,13
 896 -160 896 -160 784 -272 c 5,14,-1
 693 -181 l 5,15,16
 744 -130 744 -130 760 -64 c 5,17,-1
 576 -64 l 5,18,-1
 576 -256 l 5,19,-1
 576 -384 l 5,20,-1
 512 -384 l 6,21,22
 352 -384 352 -384 240 -272 c 5,23,-1
 331 -181 l 5,24,25
 382 -232 382 -232 448 -248 c 5,26,-1
 448 -64 l 5,27,-1
 127 -64 l 5,28,-1
 128 64 l 5,29,-1
 448 64 l 5,0,-1
EndSplineSet
Validated: 1025
EndChar

StartChar: nine
Encoding: 57 57 30
Width: 1024
VWidth: 1689
Flags: W
LayerCount: 2
Fore
SplineSet
448 -64 m 5,0,-1
 256 -64 l 5,1,-1
 128 -64 l 5,2,-1
 128 0 l 6,3,4
 128 160 128 160 240 272 c 5,5,-1
 330 182 l 5,6,7
 280 130 280 130 264 64 c 5,8,-1
 448 64 l 5,9,-1
 448 256 l 5,10,-1
 448 384 l 5,11,-1
 512 384 l 6,12,13
 672 384 672 384 784 272 c 5,14,-1
 692 182 l 5,15,16
 642 232 642 232 576 248 c 5,17,-1
 576 64 l 5,18,-1
 768 64 l 5,19,-1
 896 64 l 5,20,-1
 896 0 l 6,21,22
 896 -160 896 -160 784 -272 c 5,23,-1
 692 -180 l 5,24,25
 744 -130 744 -130 760 -64 c 5,26,-1
 576 -64 l 5,27,-1
 576 -384 l 5,28,-1
 448 -384 l 5,29,-1
 448 -64 l 5,0,-1
EndSplineSet
Validated: 1025
EndChar

StartChar: colon
Encoding: 58 58 31
Width: 1024
VWidth: 1689
Flags: W
LayerCount: 2
Fore
SplineSet
576 -64 m 5,0,-1
 576 -256 l 5,1,-1
 576 -384 l 5,2,-1
 512 -384 l 6,3,4
 352 -384 352 -384 240 -272 c 5,5,-1
 330 -182 l 5,6,7
 382 -232 382 -232 448 -248 c 5,8,-1
 448 -64 l 5,9,-1
 256 -64 l 5,10,-1
 128 -64 l 5,11,-1
 128 0 l 6,12,13
 128 160 128 160 240 272 c 5,14,-1
 330 180 l 5,15,16
 280 130 280 130 264 64 c 5,17,-1
 448 64 l 5,18,-1
 448 256 l 5,19,-1
 448 384 l 5,20,-1
 512 384 l 6,21,22
 672 384 672 384 784 272 c 5,23,-1
 692 180 l 5,24,25
 642 232 642 232 576 248 c 5,26,-1
 576 64 l 5,27,-1
 896 64 l 5,28,-1
 896 -64 l 5,29,-1
 576 -64 l 5,0,-1
EndSplineSet
Validated: 1025
EndChar

StartChar: semicolon
Encoding: 59 59 32
Width: 1024
VWidth: 1689
Flags: W
LayerCount: 2
Fore
SplineSet
576 64 m 5,0,-1
 768 64 l 5,1,-1
 896 64 l 5,2,-1
 896 0 l 6,3,4
 896 -160 896 -160 784 -272 c 5,5,-1
 694 -182 l 5,6,7
 744 -130 744 -130 760 -64 c 5,8,-1
 576 -64 l 5,9,-1
 576 -256 l 5,10,-1
 576 -384 l 5,11,-1
 512 -384 l 6,12,13
 352 -384 352 -384 240 -272 c 5,14,-1
 332 -182 l 5,15,16
 382 -232 382 -232 448 -248 c 5,17,-1
 448 -64 l 5,18,-1
 256 -64 l 5,19,-1
 128 -64 l 5,20,-1
 128 0 l 6,21,22
 128 160 128 160 240 272 c 5,23,-1
 332 180 l 5,24,25
 280 130 280 130 264 64 c 5,26,-1
 448 64 l 5,27,-1
 448 384 l 5,28,-1
 576 384 l 5,29,-1
 576 64 l 5,0,-1
EndSplineSet
Validated: 1025
EndChar

StartChar: less
Encoding: 60 60 33
Width: 1024
VWidth: 1689
Flags: W
LayerCount: 2
Fore
SplineSet
896 0 m 6,0,1
 896 -160 896 -160 784 -272 c 5,2,-1
 693 -181 l 5,3,4
 744 -130 744 -130 760 -64 c 5,5,-1
 576 -64 l 5,6,-1
 576 -256 l 5,7,-1
 576 -384 l 5,8,-1
 512 -384 l 6,9,10
 352 -384 352 -384 240 -272 c 5,11,-1
 331 -181 l 5,12,13
 382 -232 382 -232 448 -248 c 5,14,-1
 448 -64 l 5,15,-1
 256 -64 l 5,16,-1
 128 -64 l 5,17,-1
 128 0 l 6,18,19
 128 160 128 160 240 272 c 5,20,-1
 331 181 l 5,21,22
 280 130 280 130 264 64 c 5,23,-1
 448 64 l 5,24,-1
 448 256 l 5,25,-1
 448 384 l 5,26,-1
 512 384 l 6,27,28
 672 384 672 384 784 272 c 5,29,-1
 693 181 l 5,30,31
 642 232 642 232 576 248 c 5,32,-1
 576 64 l 5,33,-1
 768 64 l 5,34,-1
 896 64 l 5,35,-1
 896 0 l 6,0,1
EndSplineSet
EndChar

StartChar: equal
Encoding: 61 61 34
Width: 1024
VWidth: 1689
Flags: W
LayerCount: 2
Fore
SplineSet
576 64 m 5,0,-1
 768 64 l 5,1,-1
 896 64 l 5,2,-1
 896 0 l 6,3,4
 896 -160 896 -160 784 -272 c 5,5,-1
 693 -181 l 5,6,7
 744 -130 744 -130 760 -64 c 5,8,-1
 576 -64 l 5,9,-1
 576 -384 l 5,10,-1
 448 -384 l 5,11,-1
 448 -64 l 5,12,-1
 256 -64 l 5,13,-1
 128 -64 l 5,14,-1
 128 0 l 6,15,16
 128 160 128 160 240 272 c 5,17,-1
 331 181 l 5,18,19
 280 130 280 130 264 64 c 5,20,-1
 448 64 l 5,21,-1
 448 384 l 5,22,-1
 576 384 l 5,23,-1
 576 64 l 5,0,-1
EndSplineSet
EndChar

StartChar: greater
Encoding: 62 62 35
Width: 1024
VWidth: 1689
Flags: W
LayerCount: 2
Fore
SplineSet
576 -64 m 5,0,-1
 576 -256 l 5,1,-1
 576 -384 l 5,2,-1
 512 -384 l 6,3,4
 352 -384 352 -384 240 -272 c 5,5,-1
 331 -181 l 5,6,7
 382 -232 382 -232 448 -248 c 5,8,-1
 448 -64 l 5,9,-1
 128 -64 l 5,10,-1
 128 64 l 5,11,-1
 448 64 l 5,12,-1
 448 256 l 5,13,-1
 448 384 l 5,14,-1
 512 384 l 6,15,16
 672 384 672 384 784 272 c 5,17,-1
 693 181 l 5,18,19
 642 232 642 232 576 248 c 5,20,-1
 576 64 l 5,21,-1
 896 64 l 5,22,-1
 896 -64 l 5,23,-1
 576 -64 l 5,0,-1
EndSplineSet
EndChar

StartChar: question
Encoding: 63 63 36
Width: 1024
VWidth: 1689
Flags: W
LayerCount: 2
Fore
SplineSet
128 0 m 2,0,1
 128 0 128 0 128 64 c 1,2,-1
 256 64 l 1,3,-1
 448 64 l 1,4,-1
 448 248 l 1,5,6
 382 232 382 232 331 181 c 1,7,8
 331 181 331 181 240 272 c 1,9,10
 352 384 352 384 512 384 c 2,11,12
 512 384 512 384 576 384 c 1,13,-1
 576 256 l 1,14,-1
 576 64 l 1,15,-1
 760 64 l 1,16,17
 744 130 744 130 693 181 c 1,18,19
 693 181 693 181 784 272 c 1,20,21
 896 160 896 160 896 0 c 2,22,23
 896 0 896 0 896 -64 c 1,24,-1
 768 -64 l 1,25,-1
 576 -64 l 1,26,-1
 576 -248 l 1,27,28
 642 -232 642 -232 693 -181 c 1,29,30
 693 -181 693 -181 784 -272 c 1,31,32
 672 -384 672 -384 512 -384 c 2,33,34
 512 -384 512 -384 448 -384 c 1,35,-1
 448 -256 l 1,36,-1
 448 -64 l 1,37,-1
 264 -64 l 1,38,39
 280 -130 280 -130 331 -181 c 1,40,41
 331 -181 331 -181 240 -272 c 1,42,43
 128 -160 128 -160 128 0 c 2,0,1
EndSplineSet
Validated: 1025
EndChar

StartChar: amacron
Encoding: 257 257 37
Width: 1024
VWidth: 1689
Flags: W
LayerCount: 2
Fore
SplineSet
256 64 m 5,0,-1
 256 0 l 6,1,2
 256 -106 256 -106 331 -181 c 132,-1,3
 406 -256 406 -256 512 -256 c 132,-1,4
 618 -256 618 -256 693 -181 c 132,-1,5
 768 -106 768 -106 768 0 c 6,6,-1
 768 64 l 5,7,-1
 896 64 l 5,8,-1
 896 0 l 6,9,10
 896 -159 896 -159 783.5 -271.5 c 132,-1,11
 671 -384 671 -384 512 -384 c 132,-1,12
 353 -384 353 -384 240.5 -271.5 c 132,-1,13
 128 -159 128 -159 128 0 c 6,14,-1
 128 64 l 5,15,-1
 128 384 l 5,16,-1
 256 384 l 5,17,-1
 256 64 l 5,0,-1
EndSplineSet
Validated: 1
EndChar

StartChar: Abreve
Encoding: 258 258 38
Width: 1024
VWidth: 1689
Flags: W
LayerCount: 2
Fore
SplineSet
448 -256 m 5,0,-1
 512 -256 l 6,1,2
 618 -256 618 -256 693 -181 c 132,-1,3
 768 -106 768 -106 768 0 c 132,-1,4
 768 106 768 106 693 181 c 132,-1,5
 618 256 618 256 512 256 c 6,6,-1
 448 256 l 5,7,-1
 448 384 l 5,8,-1
 512 384 l 6,9,10
 671 384 671 384 783.5 271.5 c 132,-1,11
 896 159 896 159 896 0 c 132,-1,12
 896 -159 896 -159 783.5 -271.5 c 132,-1,13
 671 -384 671 -384 512 -384 c 6,14,-1
 448 -384 l 5,15,-1
 128 -384 l 5,16,-1
 128 -256 l 5,17,-1
 448 -256 l 5,0,-1
EndSplineSet
Validated: 1
EndChar

StartChar: abreve
Encoding: 259 259 39
Width: 1024
VWidth: 1689
Flags: W
LayerCount: 2
Fore
SplineSet
768 -64 m 5,0,-1
 768 0 l 6,1,2
 768 106 768 106 693 181 c 132,-1,3
 618 256 618 256 512 256 c 132,-1,4
 406 256 406 256 331 181 c 132,-1,5
 256 106 256 106 256 0 c 6,6,-1
 256 -64 l 5,7,-1
 128 -64 l 5,8,-1
 128 0 l 6,9,10
 128 159 128 159 240.5 271.5 c 132,-1,11
 353 384 353 384 512 384 c 132,-1,12
 671 384 671 384 783.5 271.5 c 132,-1,13
 896 159 896 159 896 0 c 6,14,-1
 896 -64 l 5,15,-1
 896 -384 l 5,16,-1
 768 -384 l 5,17,-1
 768 -64 l 5,0,-1
EndSplineSet
Validated: 1
EndChar

StartChar: Aogonek
Encoding: 260 260 40
Width: 1024
VWidth: 1689
Flags: W
LayerCount: 2
Fore
SplineSet
448 256 m 1,0,-1
 128 256 l 1,1,-1
 128 384 l 1,2,-1
 448 384 l 1,3,-1
 512 384 l 2,4,5
 671 384 671 384 783.5 271.5 c 128,-1,6
 896 159 896 159 896 0 c 128,-1,7
 896 -159 896 -159 783.5 -271.5 c 128,-1,8
 671 -384 671 -384 512 -384 c 2,9,10
 512 -384 512 -384 448 -384 c 1,11,-1
 448 -256 l 1,12,-1
 512 -256 l 2,13,14
 618 -256 618 -256 693 -181 c 128,-1,15
 768 -106 768 -106 768 0 c 128,-1,16
 768 106 768 106 693 181 c 128,-1,17
 618 256 618 256 512 256 c 2,18,19
 512 256 512 256 448 256 c 1,0,-1
EndSplineSet
Validated: 1
EndChar

StartChar: aogonek
Encoding: 261 261 41
Width: 1024
VWidth: 1689
Flags: W
LayerCount: 2
Fore
SplineSet
768 64 m 1,0,-1
 768 384 l 1,1,-1
 896 384 l 1,2,-1
 896 64 l 1,3,-1
 896 0 l 2,4,5
 896 -159 896 -159 783.5 -271.5 c 128,-1,6
 671 -384 671 -384 512 -384 c 128,-1,7
 353 -384 353 -384 240.5 -271.5 c 128,-1,8
 128 -159 128 -159 128 0 c 2,9,10
 128 0 128 0 128 64 c 1,11,-1
 256 64 l 1,12,-1
 256 0 l 2,13,14
 256 -106 256 -106 331 -181 c 128,-1,15
 406 -256 406 -256 512 -256 c 128,-1,16
 618 -256 618 -256 693 -181 c 128,-1,17
 768 -106 768 -106 768 0 c 2,18,19
 768 0 768 0 768 64 c 1,0,-1
EndSplineSet
Validated: 1
EndChar

StartChar: Cacute
Encoding: 262 262 42
Width: 1024
VWidth: 1689
Flags: W
LayerCount: 2
Fore
SplineSet
576 -256 m 1,0,-1
 896 -256 l 1,1,-1
 896 -384 l 1,2,-1
 576 -384 l 1,3,-1
 512 -384 l 2,4,5
 353 -384 353 -384 240.5 -271.5 c 128,-1,6
 128 -159 128 -159 128 0 c 128,-1,7
 128 159 128 159 240.5 271.5 c 128,-1,8
 353 384 353 384 512 384 c 2,9,10
 512 384 512 384 576 384 c 1,11,-1
 576 256 l 1,12,-1
 512 256 l 2,13,14
 406 256 406 256 331 181 c 128,-1,15
 256 106 256 106 256 0 c 128,-1,16
 256 -106 256 -106 331 -181 c 128,-1,17
 406 -256 406 -256 512 -256 c 2,18,19
 512 -256 512 -256 576 -256 c 1,0,-1
EndSplineSet
Validated: 1
EndChar

StartChar: cacute
Encoding: 263 263 43
Width: 1024
VWidth: 1689
Flags: W
LayerCount: 2
Fore
SplineSet
256 -64 m 1,0,-1
 256 -384 l 1,1,-1
 128 -384 l 1,2,-1
 128 -64 l 1,3,-1
 128 0 l 2,4,5
 128 159 128 159 240.5 271.5 c 128,-1,6
 353 384 353 384 512 384 c 128,-1,7
 671 384 671 384 783.5 271.5 c 128,-1,8
 896 159 896 159 896 0 c 2,9,10
 896 0 896 0 896 -64 c 1,11,-1
 768 -64 l 1,12,-1
 768 0 l 2,13,14
 768 106 768 106 693 181 c 128,-1,15
 618 256 618 256 512 256 c 128,-1,16
 406 256 406 256 331 181 c 128,-1,17
 256 106 256 106 256 0 c 2,18,19
 256 0 256 0 256 -64 c 1,0,-1
EndSplineSet
Validated: 1
EndChar

StartChar: Ccircumflex
Encoding: 264 264 44
Width: 1024
VWidth: 1689
Flags: W
LayerCount: 2
Fore
SplineSet
896 -256 m 5,0,-1
 896 -384 l 5,1,-1
 768 -384 l 5,2,-1
 768 -256 l 5,3,-1
 896 -256 l 5,0,-1
576 256 m 1,4,-1
 512 256 l 2,5,6
 406 256 406 256 331 181 c 128,-1,7
 256 106 256 106 256 0 c 128,-1,8
 256 -106 256 -106 331 -181 c 128,-1,9
 406 -256 406 -256 512 -256 c 2,10,-1
 576 -256 l 1,11,-1
 576 -384 l 1,12,-1
 512 -384 l 2,13,14
 353 -384 353 -384 240.5 -271.5 c 128,-1,15
 128 -159 128 -159 128 0 c 128,-1,16
 128 159 128 159 240.5 271.5 c 128,-1,17
 353 384 353 384 512 384 c 2,18,-1
 576 384 l 1,19,-1
 896 384 l 1,20,-1
 896 256 l 1,21,-1
 576 256 l 1,4,-1
EndSplineSet
Validated: 1025
EndChar

StartChar: ccircumflex
Encoding: 265 265 45
Width: 1024
VWidth: 1689
Flags: W
LayerCount: 2
Fore
SplineSet
768 384 m 5,0,-1
 896 384 l 5,1,-1
 896 256 l 5,2,-1
 768 256 l 5,3,-1
 768 384 l 5,0,-1
256 64 m 1,4,-1
 256 0 l 2,5,6
 256 -106 256 -106 331 -181 c 128,-1,7
 406 -256 406 -256 512 -256 c 128,-1,8
 618 -256 618 -256 693 -181 c 128,-1,9
 768 -106 768 -106 768 0 c 2,10,-1
 768 64 l 1,11,-1
 896 64 l 1,12,-1
 896 0 l 2,13,14
 896 -159 896 -159 783.5 -271.5 c 128,-1,15
 671 -384 671 -384 512 -384 c 128,-1,16
 353 -384 353 -384 240.5 -271.5 c 128,-1,17
 128 -159 128 -159 128 0 c 2,18,-1
 128 64 l 1,19,-1
 128 384 l 1,20,-1
 256 384 l 1,21,-1
 256 64 l 1,4,-1
EndSplineSet
Validated: 1025
EndChar

StartChar: Cdotaccent
Encoding: 266 266 46
Width: 1024
VWidth: 1689
Flags: W
LayerCount: 2
Fore
SplineSet
128 256 m 5,0,-1
 128 384 l 5,1,-1
 256 384 l 5,2,-1
 256 256 l 5,3,-1
 128 256 l 5,0,-1
448 -256 m 1,4,-1
 512 -256 l 2,5,6
 618 -256 618 -256 693 -181 c 128,-1,7
 768 -106 768 -106 768 0 c 128,-1,8
 768 106 768 106 693 181 c 128,-1,9
 618 256 618 256 512 256 c 2,10,-1
 448 256 l 1,11,-1
 448 384 l 1,12,-1
 512 384 l 2,13,14
 671 384 671 384 783.5 271.5 c 128,-1,15
 896 159 896 159 896 0 c 128,-1,16
 896 -159 896 -159 783.5 -271.5 c 128,-1,17
 671 -384 671 -384 512 -384 c 2,18,-1
 448 -384 l 1,19,-1
 128 -384 l 1,20,-1
 128 -256 l 1,21,-1
 448 -256 l 1,4,-1
EndSplineSet
Validated: 1025
EndChar

StartChar: cdotaccent
Encoding: 267 267 47
Width: 1024
VWidth: 1689
Flags: W
LayerCount: 2
Fore
SplineSet
256 -384 m 5,0,-1
 128 -384 l 5,1,-1
 128 -256 l 5,2,-1
 256 -256 l 5,3,-1
 256 -384 l 5,0,-1
768 -64 m 1,4,-1
 768 0 l 2,5,6
 768 106 768 106 693 181 c 128,-1,7
 618 256 618 256 512 256 c 128,-1,8
 406 256 406 256 331 181 c 128,-1,9
 256 106 256 106 256 0 c 2,10,-1
 256 -64 l 1,11,-1
 128 -64 l 1,12,-1
 128 0 l 2,13,14
 128 159 128 159 240.5 271.5 c 128,-1,15
 353 384 353 384 512 384 c 128,-1,16
 671 384 671 384 783.5 271.5 c 128,-1,17
 896 159 896 159 896 0 c 2,18,-1
 896 -64 l 1,19,-1
 896 -384 l 1,20,-1
 768 -384 l 1,21,-1
 768 -64 l 1,4,-1
EndSplineSet
Validated: 1025
EndChar

StartChar: Ccaron
Encoding: 268 268 48
Width: 1024
VWidth: 1689
Flags: W
LayerCount: 2
Fore
SplineSet
128 -256 m 5,0,-1
 256 -256 l 5,1,-1
 256 -384 l 5,2,-1
 128 -384 l 5,3,-1
 128 -256 l 5,0,-1
448 256 m 5,4,-1
 128 256 l 5,5,-1
 128 384 l 5,6,-1
 448 384 l 5,7,-1
 512 384 l 6,8,9
 671 384 671 384 783.5 271.5 c 132,-1,10
 896 159 896 159 896 0 c 132,-1,11
 896 -159 896 -159 783.5 -271.5 c 132,-1,12
 671 -384 671 -384 512 -384 c 6,13,14
 512 -384 512 -384 448 -384 c 5,15,-1
 448 -256 l 5,16,-1
 512 -256 l 6,17,18
 618 -256 618 -256 693 -181 c 132,-1,19
 768 -106 768 -106 768 0 c 132,-1,20
 768 106 768 106 693 181 c 132,-1,21
 618 256 618 256 512 256 c 6,22,23
 512 256 512 256 448 256 c 5,4,-1
EndSplineSet
Validated: 1025
EndChar

StartChar: ccaron
Encoding: 269 269 49
Width: 1024
VWidth: 1689
Flags: W
LayerCount: 2
Fore
SplineSet
256 384 m 5,0,-1
 256 256 l 5,1,-1
 128 256 l 5,2,-1
 128 384 l 5,3,-1
 256 384 l 5,0,-1
768 64 m 5,4,-1
 768 384 l 5,5,-1
 896 384 l 5,6,-1
 896 64 l 5,7,-1
 896 0 l 6,8,9
 896 -159 896 -159 783.5 -271.5 c 132,-1,10
 671 -384 671 -384 512 -384 c 132,-1,11
 353 -384 353 -384 240.5 -271.5 c 132,-1,12
 128 -159 128 -159 128 0 c 6,13,14
 128 0 128 0 128 64 c 5,15,-1
 256 64 l 5,16,-1
 256 0 l 6,17,18
 256 -106 256 -106 331 -181 c 132,-1,19
 406 -256 406 -256 512 -256 c 132,-1,20
 618 -256 618 -256 693 -181 c 132,-1,21
 768 -106 768 -106 768 0 c 6,22,23
 768 0 768 0 768 64 c 5,4,-1
EndSplineSet
Validated: 1025
EndChar

StartChar: Dcaron
Encoding: 270 270 50
Width: 1024
VWidth: 1689
Flags: W
LayerCount: 2
Fore
SplineSet
896 256 m 5,0,-1
 768 256 l 5,1,-1
 768 384 l 5,2,-1
 896 384 l 5,3,-1
 896 256 l 5,0,-1
576 -256 m 5,4,-1
 896 -256 l 5,5,-1
 896 -384 l 5,6,-1
 576 -384 l 5,7,-1
 512 -384 l 6,8,9
 353 -384 353 -384 240.5 -271.5 c 132,-1,10
 128 -159 128 -159 128 0 c 132,-1,11
 128 159 128 159 240.5 271.5 c 132,-1,12
 353 384 353 384 512 384 c 6,13,14
 512 384 512 384 576 384 c 5,15,-1
 576 256 l 5,16,-1
 512 256 l 6,17,18
 406 256 406 256 331 181 c 132,-1,19
 256 106 256 106 256 0 c 132,-1,20
 256 -106 256 -106 331 -181 c 132,-1,21
 406 -256 406 -256 512 -256 c 6,22,23
 512 -256 512 -256 576 -256 c 5,4,-1
EndSplineSet
Validated: 1025
EndChar

StartChar: dcaron
Encoding: 271 271 51
Width: 1024
VWidth: 1689
Flags: W
LayerCount: 2
Fore
SplineSet
768 -384 m 5,0,-1
 768 -256 l 5,1,-1
 896 -256 l 5,2,-1
 896 -384 l 5,3,-1
 768 -384 l 5,0,-1
256 -64 m 5,4,-1
 256 -384 l 5,5,-1
 128 -384 l 5,6,-1
 128 -64 l 5,7,-1
 128 0 l 6,8,9
 128 159 128 159 240.5 271.5 c 132,-1,10
 353 384 353 384 512 384 c 132,-1,11
 671 384 671 384 783.5 271.5 c 132,-1,12
 896 159 896 159 896 0 c 6,13,14
 896 0 896 0 896 -64 c 5,15,-1
 768 -64 l 5,16,-1
 768 0 l 6,17,18
 768 106 768 106 693 181 c 132,-1,19
 618 256 618 256 512 256 c 132,-1,20
 406 256 406 256 331 181 c 132,-1,21
 256 106 256 106 256 0 c 6,22,23
 256 0 256 0 256 -64 c 5,4,-1
EndSplineSet
Validated: 1025
EndChar

StartChar: Dcroat
Encoding: 272 272 52
Width: 1024
VWidth: 1689
Flags: W
LayerCount: 2
Fore
SplineSet
576 256 m 5,0,-1
 512 256 l 6,1,2
 406 256 406 256 331 181 c 132,-1,3
 256 106 256 106 256 0 c 132,-1,4
 256 -106 256 -106 331 -181 c 132,-1,5
 406 -256 406 -256 512 -256 c 6,6,-1
 576 -256 l 5,7,-1
 576 -384 l 5,8,-1
 512 -384 l 6,9,10
 353 -384 353 -384 240.5 -271.5 c 132,-1,11
 128 -159 128 -159 128 0 c 132,-1,12
 128 159 128 159 240.5 271.5 c 132,-1,13
 353 384 353 384 512 384 c 6,14,-1
 576 384 l 5,15,-1
 768 384 l 5,16,-1
 896 384 l 5,17,-1
 896 256 l 5,18,-1
 896 -64 l 5,19,-1
 768 -64 l 5,20,-1
 768 256 l 5,21,-1
 576 256 l 5,0,-1
EndSplineSet
Validated: 1025
EndChar

StartChar: dcroat
Encoding: 273 273 53
Width: 1024
VWidth: 1689
Flags: W
LayerCount: 2
Fore
SplineSet
256 64 m 5,0,-1
 256 0 l 6,1,2
 256 -106 256 -106 331 -181 c 132,-1,3
 406 -256 406 -256 512 -256 c 132,-1,4
 618 -256 618 -256 693 -181 c 132,-1,5
 768 -106 768 -106 768 0 c 6,6,-1
 768 64 l 5,7,-1
 896 64 l 5,8,-1
 896 0 l 6,9,10
 896 -159 896 -159 783.5 -271.5 c 132,-1,11
 671 -384 671 -384 512 -384 c 132,-1,12
 353 -384 353 -384 240.5 -271.5 c 132,-1,13
 128 -159 128 -159 128 0 c 6,14,-1
 128 64 l 5,15,-1
 128 256 l 5,16,-1
 128 384 l 5,17,-1
 256 384 l 5,18,-1
 576 384 l 5,19,-1
 576 256 l 5,20,-1
 256 256 l 5,21,-1
 256 64 l 5,0,-1
EndSplineSet
Validated: 1025
EndChar

StartChar: Emacron
Encoding: 274 274 54
Width: 1024
VWidth: 1689
Flags: W
LayerCount: 2
Fore
SplineSet
448 -256 m 5,0,-1
 512 -256 l 6,1,2
 618 -256 618 -256 693 -181 c 132,-1,3
 768 -106 768 -106 768 0 c 132,-1,4
 768 106 768 106 693 181 c 132,-1,5
 618 256 618 256 512 256 c 6,6,-1
 448 256 l 5,7,-1
 448 384 l 5,8,-1
 512 384 l 6,9,10
 671 384 671 384 783.5 271.5 c 132,-1,11
 896 159 896 159 896 0 c 132,-1,12
 896 -159 896 -159 783.5 -271.5 c 132,-1,13
 671 -384 671 -384 512 -384 c 6,14,-1
 448 -384 l 5,15,-1
 256 -384 l 5,16,-1
 128 -384 l 5,17,-1
 128 -256 l 5,18,-1
 128 64 l 5,19,-1
 256 64 l 5,20,-1
 256 -256 l 5,21,-1
 448 -256 l 5,0,-1
EndSplineSet
Validated: 1025
EndChar

StartChar: emacron
Encoding: 275 275 55
Width: 1024
VWidth: 1689
Flags: W
LayerCount: 2
Fore
SplineSet
768 -64 m 5,0,-1
 768 0 l 6,1,2
 768 106 768 106 693 181 c 132,-1,3
 618 256 618 256 512 256 c 132,-1,4
 406 256 406 256 331 181 c 132,-1,5
 256 106 256 106 256 0 c 6,6,-1
 256 -64 l 5,7,-1
 128 -64 l 5,8,-1
 128 0 l 6,9,10
 128 159 128 159 240.5 271.5 c 132,-1,11
 353 384 353 384 512 384 c 132,-1,12
 671 384 671 384 783.5 271.5 c 132,-1,13
 896 159 896 159 896 0 c 6,14,-1
 896 -64 l 5,15,-1
 896 -256 l 5,16,-1
 896 -384 l 5,17,-1
 768 -384 l 5,18,-1
 448 -384 l 5,19,-1
 448 -256 l 5,20,-1
 768 -256 l 5,21,-1
 768 -64 l 5,0,-1
EndSplineSet
Validated: 1025
EndChar

StartChar: Ebreve
Encoding: 276 276 56
Width: 1024
VWidth: 1689
Flags: W
LayerCount: 2
Fore
SplineSet
448 256 m 1,0,-1
 256 256 l 1,1,-1
 256 -64 l 1,2,-1
 128 -64 l 1,3,-1
 128 256 l 1,4,-1
 128 384 l 1,5,-1
 256 384 l 1,6,-1
 448 384 l 1,7,-1
 512 384 l 2,8,9
 671 384 671 384 783.5 271.5 c 128,-1,10
 896 159 896 159 896 0 c 128,-1,11
 896 -159 896 -159 783.5 -271.5 c 128,-1,12
 671 -384 671 -384 512 -384 c 2,13,14
 512 -384 512 -384 448 -384 c 1,15,-1
 448 -256 l 1,16,-1
 512 -256 l 2,17,18
 618 -256 618 -256 693 -181 c 128,-1,19
 768 -106 768 -106 768 0 c 128,-1,20
 768 106 768 106 693 181 c 128,-1,21
 618 256 618 256 512 256 c 2,22,23
 512 256 512 256 448 256 c 1,0,-1
EndSplineSet
Validated: 1025
EndChar

StartChar: ebreve
Encoding: 277 277 57
Width: 1024
VWidth: 1689
Flags: W
LayerCount: 2
Fore
SplineSet
768 64 m 1,0,-1
 768 256 l 1,1,-1
 448 256 l 1,2,-1
 448 384 l 1,3,-1
 768 384 l 1,4,-1
 896 384 l 1,5,-1
 896 256 l 1,6,-1
 896 64 l 1,7,-1
 896 0 l 2,8,9
 896 -159 896 -159 783.5 -271.5 c 128,-1,10
 671 -384 671 -384 512 -384 c 128,-1,11
 353 -384 353 -384 240.5 -271.5 c 128,-1,12
 128 -159 128 -159 128 0 c 2,13,14
 128 0 128 0 128 64 c 1,15,-1
 256 64 l 1,16,-1
 256 0 l 2,17,18
 256 -106 256 -106 331 -181 c 128,-1,19
 406 -256 406 -256 512 -256 c 128,-1,20
 618 -256 618 -256 693 -181 c 128,-1,21
 768 -106 768 -106 768 0 c 2,22,23
 768 0 768 0 768 64 c 1,0,-1
EndSplineSet
Validated: 1025
EndChar

StartChar: Edotaccent
Encoding: 278 278 58
Width: 1024
VWidth: 1689
Flags: W
LayerCount: 2
Fore
SplineSet
576 -256 m 1,0,-1
 768 -256 l 1,1,-1
 768 64 l 1,2,-1
 896 64 l 1,3,-1
 896 -256 l 1,4,-1
 896 -384 l 1,5,-1
 768 -384 l 1,6,-1
 576 -384 l 1,7,-1
 512 -384 l 2,8,9
 353 -384 353 -384 240.5 -271.5 c 128,-1,10
 128 -159 128 -159 128 0 c 128,-1,11
 128 159 128 159 240.5 271.5 c 128,-1,12
 353 384 353 384 512 384 c 2,13,14
 512 384 512 384 576 384 c 1,15,-1
 576 256 l 1,16,-1
 512 256 l 2,17,18
 406 256 406 256 331 181 c 128,-1,19
 256 106 256 106 256 0 c 128,-1,20
 256 -106 256 -106 331 -181 c 128,-1,21
 406 -256 406 -256 512 -256 c 2,22,23
 512 -256 512 -256 576 -256 c 1,0,-1
EndSplineSet
Validated: 1025
EndChar

StartChar: edotaccent
Encoding: 279 279 59
Width: 1024
VWidth: 1689
Flags: W
LayerCount: 2
Fore
SplineSet
256 -64 m 1,0,-1
 256 -256 l 1,1,-1
 576 -256 l 1,2,-1
 576 -384 l 1,3,-1
 256 -384 l 1,4,-1
 128 -384 l 1,5,-1
 128 -256 l 1,6,-1
 128 -64 l 1,7,-1
 128 0 l 2,8,9
 128 159 128 159 240.5 271.5 c 128,-1,10
 353 384 353 384 512 384 c 128,-1,11
 671 384 671 384 783.5 271.5 c 128,-1,12
 896 159 896 159 896 0 c 2,13,14
 896 0 896 0 896 -64 c 1,15,-1
 768 -64 l 1,16,-1
 768 0 l 2,17,18
 768 106 768 106 693 181 c 128,-1,19
 618 256 618 256 512 256 c 128,-1,20
 406 256 406 256 331 181 c 128,-1,21
 256 106 256 106 256 0 c 2,22,23
 256 0 256 0 256 -64 c 1,0,-1
EndSplineSet
Validated: 1025
EndChar

StartChar: Eogonek
Encoding: 280 280 60
Width: 1024
VWidth: 1689
Flags: W
LayerCount: 2
Fore
SplineSet
896 -256 m 5,0,-1
 896 -384 l 5,1,-1
 768 -384 l 5,2,-1
 768 -256 l 5,3,-1
 896 -256 l 5,0,-1
576 256 m 1,4,-1
 512 256 l 2,5,6
 406 256 406 256 331 181 c 128,-1,7
 256 106 256 106 256 0 c 128,-1,8
 256 -106 256 -106 331 -181 c 128,-1,9
 406 -256 406 -256 512 -256 c 2,10,-1
 576 -256 l 1,11,-1
 576 -384 l 1,12,-1
 512 -384 l 2,13,14
 353 -384 353 -384 240.5 -271.5 c 128,-1,15
 128 -159 128 -159 128 0 c 128,-1,16
 128 159 128 159 240.5 271.5 c 128,-1,17
 353 384 353 384 512 384 c 2,18,-1
 576 384 l 1,19,-1
 768 384 l 1,20,-1
 896 384 l 1,21,-1
 896 256 l 1,22,-1
 896 -64 l 1,23,-1
 768 -64 l 1,24,-1
 768 256 l 1,25,-1
 576 256 l 1,4,-1
EndSplineSet
Validated: 1025
EndChar

StartChar: eogonek
Encoding: 281 281 61
Width: 1024
VWidth: 1689
Flags: W
LayerCount: 2
Fore
SplineSet
768 384 m 5,0,-1
 896 384 l 5,1,-1
 896 256 l 5,2,-1
 768 256 l 5,3,-1
 768 384 l 5,0,-1
256 64 m 1,4,-1
 256 0 l 2,5,6
 256 -106 256 -106 331 -181 c 128,-1,7
 406 -256 406 -256 512 -256 c 128,-1,8
 618 -256 618 -256 693 -181 c 128,-1,9
 768 -106 768 -106 768 0 c 2,10,-1
 768 64 l 1,11,-1
 896 64 l 1,12,-1
 896 0 l 2,13,14
 896 -159 896 -159 783.5 -271.5 c 128,-1,15
 671 -384 671 -384 512 -384 c 128,-1,16
 353 -384 353 -384 240.5 -271.5 c 128,-1,17
 128 -159 128 -159 128 0 c 2,18,-1
 128 64 l 1,19,-1
 128 256 l 1,20,-1
 128 384 l 1,21,-1
 256 384 l 1,22,-1
 576 384 l 1,23,-1
 576 256 l 1,24,-1
 256 256 l 1,25,-1
 256 64 l 1,4,-1
EndSplineSet
Validated: 1025
EndChar

StartChar: Ecaron
Encoding: 282 282 62
Width: 1024
VWidth: 1689
Flags: W
LayerCount: 2
Fore
SplineSet
128 256 m 5,0,-1
 128 384 l 5,1,-1
 256 384 l 5,2,-1
 256 256 l 5,3,-1
 128 256 l 5,0,-1
448 -256 m 1,4,-1
 512 -256 l 2,5,6
 618 -256 618 -256 693 -181 c 128,-1,7
 768 -106 768 -106 768 0 c 128,-1,8
 768 106 768 106 693 181 c 128,-1,9
 618 256 618 256 512 256 c 2,10,-1
 448 256 l 1,11,-1
 448 384 l 1,12,-1
 512 384 l 2,13,14
 671 384 671 384 783.5 271.5 c 128,-1,15
 896 159 896 159 896 0 c 128,-1,16
 896 -159 896 -159 783.5 -271.5 c 128,-1,17
 671 -384 671 -384 512 -384 c 2,18,-1
 448 -384 l 1,19,-1
 256 -384 l 1,20,-1
 128 -384 l 1,21,-1
 128 -256 l 1,22,-1
 128 64 l 1,23,-1
 256 64 l 1,24,-1
 256 -256 l 1,25,-1
 448 -256 l 1,4,-1
EndSplineSet
Validated: 1025
EndChar

StartChar: ecaron
Encoding: 283 283 63
Width: 1024
VWidth: 1689
Flags: W
LayerCount: 2
Fore
SplineSet
256 -384 m 5,0,-1
 128 -384 l 5,1,-1
 128 -256 l 5,2,-1
 256 -256 l 5,3,-1
 256 -384 l 5,0,-1
768 -64 m 1,4,-1
 768 0 l 2,5,6
 768 106 768 106 693 181 c 128,-1,7
 618 256 618 256 512 256 c 128,-1,8
 406 256 406 256 331 181 c 128,-1,9
 256 106 256 106 256 0 c 2,10,-1
 256 -64 l 1,11,-1
 128 -64 l 1,12,-1
 128 0 l 2,13,14
 128 159 128 159 240.5 271.5 c 128,-1,15
 353 384 353 384 512 384 c 128,-1,16
 671 384 671 384 783.5 271.5 c 128,-1,17
 896 159 896 159 896 0 c 2,18,-1
 896 -64 l 1,19,-1
 896 -256 l 1,20,-1
 896 -384 l 1,21,-1
 768 -384 l 1,22,-1
 448 -384 l 1,23,-1
 448 -256 l 1,24,-1
 768 -256 l 1,25,-1
 768 -64 l 1,4,-1
EndSplineSet
Validated: 1025
EndChar

StartChar: Gcircumflex
Encoding: 284 284 64
Width: 1024
VWidth: 1689
Flags: W
LayerCount: 2
Fore
SplineSet
128 -256 m 5,0,-1
 256 -256 l 5,1,-1
 256 -384 l 5,2,-1
 128 -384 l 5,3,-1
 128 -256 l 5,0,-1
448 256 m 5,4,-1
 256 256 l 5,5,-1
 256 -64 l 5,6,-1
 128 -64 l 5,7,-1
 128 256 l 5,8,-1
 128 384 l 5,9,-1
 256 384 l 5,10,-1
 448 384 l 5,11,-1
 512 384 l 6,12,13
 671 384 671 384 783.5 271.5 c 132,-1,14
 896 159 896 159 896 0 c 132,-1,15
 896 -159 896 -159 783.5 -271.5 c 132,-1,16
 671 -384 671 -384 512 -384 c 6,17,18
 512 -384 512 -384 448 -384 c 5,19,-1
 448 -256 l 5,20,-1
 512 -256 l 6,21,22
 618 -256 618 -256 693 -181 c 132,-1,23
 768 -106 768 -106 768 0 c 132,-1,24
 768 106 768 106 693 181 c 132,-1,25
 618 256 618 256 512 256 c 6,26,27
 512 256 512 256 448 256 c 5,4,-1
EndSplineSet
Validated: 1025
EndChar

StartChar: gcircumflex
Encoding: 285 285 65
Width: 1024
VWidth: 1689
Flags: W
LayerCount: 2
Fore
SplineSet
256 384 m 5,0,-1
 256 256 l 5,1,-1
 128 256 l 5,2,-1
 128 384 l 5,3,-1
 256 384 l 5,0,-1
768 64 m 5,4,-1
 768 256 l 5,5,-1
 448 256 l 5,6,-1
 448 384 l 5,7,-1
 768 384 l 5,8,-1
 896 384 l 5,9,-1
 896 256 l 5,10,-1
 896 64 l 5,11,-1
 896 0 l 6,12,13
 896 -159 896 -159 783.5 -271.5 c 132,-1,14
 671 -384 671 -384 512 -384 c 132,-1,15
 353 -384 353 -384 240.5 -271.5 c 132,-1,16
 128 -159 128 -159 128 0 c 6,17,18
 128 0 128 0 128 64 c 5,19,-1
 256 64 l 5,20,-1
 256 0 l 6,21,22
 256 -106 256 -106 331 -181 c 132,-1,23
 406 -256 406 -256 512 -256 c 132,-1,24
 618 -256 618 -256 693 -181 c 132,-1,25
 768 -106 768 -106 768 0 c 6,26,27
 768 0 768 0 768 64 c 5,4,-1
EndSplineSet
Validated: 1025
EndChar

StartChar: Gbreve
Encoding: 286 286 66
Width: 1024
VWidth: 1689
Flags: W
LayerCount: 2
Fore
SplineSet
896 256 m 5,0,-1
 768 256 l 5,1,-1
 768 384 l 5,2,-1
 896 384 l 5,3,-1
 896 256 l 5,0,-1
576 -256 m 5,4,-1
 768 -256 l 5,5,-1
 768 64 l 5,6,-1
 896 64 l 5,7,-1
 896 -256 l 5,8,-1
 896 -384 l 5,9,-1
 768 -384 l 5,10,-1
 576 -384 l 5,11,-1
 512 -384 l 6,12,13
 353 -384 353 -384 240.5 -271.5 c 132,-1,14
 128 -159 128 -159 128 0 c 132,-1,15
 128 159 128 159 240.5 271.5 c 132,-1,16
 353 384 353 384 512 384 c 6,17,18
 512 384 512 384 576 384 c 5,19,-1
 576 256 l 5,20,-1
 512 256 l 6,21,22
 406 256 406 256 331 181 c 132,-1,23
 256 106 256 106 256 0 c 132,-1,24
 256 -106 256 -106 331 -181 c 132,-1,25
 406 -256 406 -256 512 -256 c 6,26,27
 512 -256 512 -256 576 -256 c 5,4,-1
EndSplineSet
Validated: 1025
EndChar

StartChar: gbreve
Encoding: 287 287 67
Width: 1024
VWidth: 1689
Flags: W
LayerCount: 2
Fore
SplineSet
768 -384 m 5,0,-1
 768 -256 l 5,1,-1
 896 -256 l 5,2,-1
 896 -384 l 5,3,-1
 768 -384 l 5,0,-1
256 -64 m 5,4,-1
 256 -256 l 5,5,-1
 576 -256 l 5,6,-1
 576 -384 l 5,7,-1
 256 -384 l 5,8,-1
 128 -384 l 5,9,-1
 128 -256 l 5,10,-1
 128 -64 l 5,11,-1
 128 0 l 6,12,13
 128 159 128 159 240.5 271.5 c 132,-1,14
 353 384 353 384 512 384 c 132,-1,15
 671 384 671 384 783.5 271.5 c 132,-1,16
 896 159 896 159 896 0 c 6,17,18
 896 0 896 0 896 -64 c 5,19,-1
 768 -64 l 5,20,-1
 768 0 l 6,21,22
 768 106 768 106 693 181 c 132,-1,23
 618 256 618 256 512 256 c 132,-1,24
 406 256 406 256 331 181 c 132,-1,25
 256 106 256 106 256 0 c 6,26,27
 256 0 256 0 256 -64 c 5,4,-1
EndSplineSet
Validated: 1025
EndChar

StartChar: Gdotaccent
Encoding: 288 288 68
Width: 1024
VWidth: 1689
Flags: W
LayerCount: 2
Fore
SplineSet
448 248 m 5,0,1
 382 232 382 232 331 181 c 4,2,3
 256 106 256 106 256 0 c 132,-1,4
 256 -106 256 -106 331 -181 c 4,5,6
 382 -232 382 -232 448 -248 c 5,7,-1
 448 248 l 5,0,1
576 -319 m 5,8,-1
 576 -384 l 5,9,-1
 512 -384 l 6,10,11
 353 -384 353 -384 240.5 -271.5 c 132,-1,12
 128 -159 128 -159 128 0 c 132,-1,13
 128 159 128 159 240.5 271.5 c 132,-1,14
 353 384 353 384 512 384 c 6,15,-1
 576 384 l 5,16,-1
 896 384 l 5,17,-1
 896 256 l 5,18,-1
 576 256 l 5,19,-1
 576 -256 l 5,20,-1
 576 -319 l 5,8,-1
EndSplineSet
Validated: 1025
EndChar

StartChar: gdotaccent
Encoding: 289 289 69
Width: 1024
VWidth: 1689
Flags: W
LayerCount: 2
Fore
SplineSet
264 -64 m 5,0,1
 280 -130 280 -130 331 -181 c 4,2,3
 406 -256 406 -256 512 -256 c 132,-1,4
 618 -256 618 -256 693 -181 c 4,5,6
 744 -130 744 -130 760 -64 c 5,7,-1
 264 -64 l 5,0,1
831 64 m 5,8,-1
 896 64 l 5,9,-1
 896 0 l 6,10,11
 896 -159 896 -159 783.5 -271.5 c 132,-1,12
 671 -384 671 -384 512 -384 c 132,-1,13
 353 -384 353 -384 240.5 -271.5 c 132,-1,14
 128 -159 128 -159 128 0 c 6,15,-1
 128 64 l 5,16,-1
 128 384 l 5,17,-1
 256 384 l 5,18,-1
 256 64 l 5,19,-1
 768 64 l 5,20,-1
 831 64 l 5,8,-1
EndSplineSet
Validated: 1025
EndChar

StartChar: uni0122
Encoding: 290 290 70
Width: 1024
VWidth: 1689
Flags: W
LayerCount: 2
Fore
SplineSet
576 -248 m 5,0,1
 642 -232 642 -232 693 -181 c 4,2,3
 768 -106 768 -106 768 0 c 132,-1,4
 768 106 768 106 693 181 c 4,5,6
 642 232 642 232 576 248 c 5,7,-1
 576 -248 l 5,0,1
448 319 m 5,8,-1
 448 384 l 5,9,-1
 512 384 l 6,10,11
 671 384 671 384 783.5 271.5 c 132,-1,12
 896 159 896 159 896 0 c 132,-1,13
 896 -159 896 -159 783.5 -271.5 c 132,-1,14
 671 -384 671 -384 512 -384 c 6,15,-1
 448 -384 l 5,16,-1
 128 -384 l 5,17,-1
 128 -256 l 5,18,-1
 448 -256 l 5,19,-1
 448 256 l 5,20,-1
 448 319 l 5,8,-1
EndSplineSet
Validated: 1025
EndChar

StartChar: uni0123
Encoding: 291 291 71
Width: 1024
VWidth: 1689
Flags: W
LayerCount: 2
Fore
SplineSet
760 64 m 5,0,1
 744 130 744 130 693 181 c 4,2,3
 618 256 618 256 512 256 c 132,-1,4
 406 256 406 256 331 181 c 4,5,6
 280 130 280 130 264 64 c 5,7,-1
 760 64 l 5,0,1
193 -64 m 5,8,-1
 128 -64 l 5,9,-1
 128 0 l 6,10,11
 128 159 128 159 240.5 271.5 c 132,-1,12
 353 384 353 384 512 384 c 132,-1,13
 671 384 671 384 783.5 271.5 c 132,-1,14
 896 159 896 159 896 0 c 6,15,-1
 896 -64 l 5,16,-1
 896 -384 l 5,17,-1
 768 -384 l 5,18,-1
 768 -64 l 5,19,-1
 256 -64 l 5,20,-1
 193 -64 l 5,8,-1
EndSplineSet
Validated: 1025
EndChar

StartChar: Hcircumflex
Encoding: 292 292 72
Width: 1024
VWidth: 1689
Flags: W
LayerCount: 2
Fore
SplineSet
576 248 m 1,0,1
 576 248 576 248 576 -248 c 1,2,3
 642 -232 642 -232 693 -181 c 0,4,5
 768 -106 768 -106 768 0 c 128,-1,6
 768 106 768 106 693 181 c 0,7,8
 642 232 642 232 576 248 c 1,0,1
448 256 m 5,9,-1
 128 256 l 1,10,-1
 128 384 l 1,11,-1
 448 384 l 1,12,-1
 512 384 l 2,13,14
 671 384 671 384 783.5 271.5 c 128,-1,15
 896 159 896 159 896 0 c 128,-1,16
 896 -159 896 -159 783.5 -271.5 c 128,-1,17
 671 -384 671 -384 512 -384 c 2,18,19
 512 -384 512 -384 448 -384 c 5,20,-1
 448 256 l 5,9,-1
EndSplineSet
Validated: 1
EndChar

StartChar: hcircumflex
Encoding: 293 293 73
Width: 1024
VWidth: 1689
Flags: W
LayerCount: 2
Fore
SplineSet
760 -64 m 1,0,1
 760 -64 760 -64 264 -64 c 1,2,3
 280 -130 280 -130 331 -181 c 0,4,5
 406 -256 406 -256 512 -256 c 128,-1,6
 618 -256 618 -256 693 -181 c 0,7,8
 744 -130 744 -130 760 -64 c 1,0,1
768 64 m 5,9,-1
 768 384 l 1,10,-1
 896 384 l 1,11,-1
 896 64 l 1,12,-1
 896 0 l 2,13,14
 896 -159 896 -159 783.5 -271.5 c 128,-1,15
 671 -384 671 -384 512 -384 c 128,-1,16
 353 -384 353 -384 240.5 -271.5 c 128,-1,17
 128 -159 128 -159 128 0 c 2,18,19
 128 0 128 0 128 64 c 5,20,-1
 768 64 l 5,9,-1
EndSplineSet
Validated: 1
EndChar

StartChar: Hbar
Encoding: 294 294 74
Width: 1024
VWidth: 1689
Flags: W
LayerCount: 2
Fore
SplineSet
448 -248 m 1,0,1
 448 -248 448 -248 448 248 c 1,2,3
 382 232 382 232 331 181 c 0,4,5
 256 106 256 106 256 0 c 128,-1,6
 256 -106 256 -106 331 -181 c 0,7,8
 382 -232 382 -232 448 -248 c 1,0,1
576 -256 m 5,9,-1
 896 -256 l 1,10,-1
 896 -384 l 1,11,-1
 576 -384 l 1,12,-1
 512 -384 l 2,13,14
 353 -384 353 -384 240.5 -271.5 c 128,-1,15
 128 -159 128 -159 128 0 c 128,-1,16
 128 159 128 159 240.5 271.5 c 128,-1,17
 353 384 353 384 512 384 c 2,18,19
 512 384 512 384 576 384 c 5,20,-1
 576 -256 l 5,9,-1
EndSplineSet
Validated: 1
EndChar

StartChar: hbar
Encoding: 295 295 75
Width: 1024
VWidth: 1689
Flags: W
LayerCount: 2
Fore
SplineSet
264 64 m 1,0,1
 264 64 264 64 760 64 c 1,2,3
 744 130 744 130 693 181 c 0,4,5
 618 256 618 256 512 256 c 128,-1,6
 406 256 406 256 331 181 c 0,7,8
 280 130 280 130 264 64 c 1,0,1
256 -64 m 5,9,-1
 256 -384 l 1,10,-1
 128 -384 l 1,11,-1
 128 -64 l 1,12,-1
 128 0 l 2,13,14
 128 159 128 159 240.5 271.5 c 128,-1,15
 353 384 353 384 512 384 c 128,-1,16
 671 384 671 384 783.5 271.5 c 128,-1,17
 896 159 896 159 896 0 c 2,18,19
 896 0 896 0 896 -64 c 5,20,-1
 256 -64 l 5,9,-1
EndSplineSet
Validated: 1
EndChar

StartChar: Itilde
Encoding: 296 296 76
Width: 1024
VWidth: 1689
Flags: W
LayerCount: 2
Fore
SplineSet
896 -256 m 5,0,-1
 896 -384 l 5,1,-1
 768 -384 l 5,2,-1
 768 -256 l 5,3,-1
 896 -256 l 5,0,-1
448 248 m 1,4,5
 382 232 382 232 331 181 c 0,6,7
 256 106 256 106 256 0 c 128,-1,8
 256 -106 256 -106 331 -181 c 0,9,10
 382 -232 382 -232 448 -248 c 1,11,-1
 448 248 l 1,4,5
576 -319 m 1,12,-1
 576 -384 l 1,13,-1
 512 -384 l 2,14,15
 353 -384 353 -384 240.5 -271.5 c 128,-1,16
 128 -159 128 -159 128 0 c 128,-1,17
 128 159 128 159 240.5 271.5 c 128,-1,18
 353 384 353 384 512 384 c 2,19,-1
 576 384 l 1,20,-1
 896 384 l 1,21,-1
 896 256 l 1,22,-1
 576 256 l 1,23,-1
 576 -256 l 1,24,-1
 576 -319 l 1,12,-1
EndSplineSet
Validated: 1025
EndChar

StartChar: itilde
Encoding: 297 297 77
Width: 1024
VWidth: 1689
Flags: W
LayerCount: 2
Fore
SplineSet
768 384 m 5,0,-1
 896 384 l 5,1,-1
 896 256 l 5,2,-1
 768 256 l 5,3,-1
 768 384 l 5,0,-1
264 -64 m 1,4,5
 280 -130 280 -130 331 -181 c 0,6,7
 406 -256 406 -256 512 -256 c 128,-1,8
 618 -256 618 -256 693 -181 c 0,9,10
 744 -130 744 -130 760 -64 c 1,11,-1
 264 -64 l 1,4,5
831 64 m 1,12,-1
 896 64 l 1,13,-1
 896 0 l 2,14,15
 896 -159 896 -159 783.5 -271.5 c 128,-1,16
 671 -384 671 -384 512 -384 c 128,-1,17
 353 -384 353 -384 240.5 -271.5 c 128,-1,18
 128 -159 128 -159 128 0 c 2,19,-1
 128 64 l 1,20,-1
 128 384 l 1,21,-1
 256 384 l 1,22,-1
 256 64 l 1,23,-1
 768 64 l 1,24,-1
 831 64 l 1,12,-1
EndSplineSet
Validated: 1025
EndChar

StartChar: Imacron
Encoding: 298 298 78
Width: 1024
VWidth: 1689
Flags: W
LayerCount: 2
Fore
SplineSet
128 256 m 5,0,-1
 128 384 l 5,1,-1
 256 384 l 5,2,-1
 256 256 l 5,3,-1
 128 256 l 5,0,-1
576 -248 m 1,4,5
 642 -232 642 -232 693 -181 c 0,6,7
 768 -106 768 -106 768 0 c 128,-1,8
 768 106 768 106 693 181 c 0,9,10
 642 232 642 232 576 248 c 1,11,-1
 576 -248 l 1,4,5
448 319 m 1,12,-1
 448 384 l 1,13,-1
 512 384 l 2,14,15
 671 384 671 384 783.5 271.5 c 128,-1,16
 896 159 896 159 896 0 c 128,-1,17
 896 -159 896 -159 783.5 -271.5 c 128,-1,18
 671 -384 671 -384 512 -384 c 2,19,-1
 448 -384 l 1,20,-1
 128 -384 l 1,21,-1
 128 -256 l 1,22,-1
 448 -256 l 1,23,-1
 448 256 l 1,24,-1
 448 319 l 1,12,-1
EndSplineSet
Validated: 1025
EndChar

StartChar: imacron
Encoding: 299 299 79
Width: 1024
VWidth: 1689
Flags: W
LayerCount: 2
Fore
SplineSet
256 -384 m 5,0,-1
 128 -384 l 5,1,-1
 128 -256 l 5,2,-1
 256 -256 l 5,3,-1
 256 -384 l 5,0,-1
760 64 m 1,4,5
 744 130 744 130 693 181 c 0,6,7
 618 256 618 256 512 256 c 128,-1,8
 406 256 406 256 331 181 c 0,9,10
 280 130 280 130 264 64 c 1,11,-1
 760 64 l 1,4,5
193 -64 m 1,12,-1
 128 -64 l 1,13,-1
 128 0 l 2,14,15
 128 159 128 159 240.5 271.5 c 128,-1,16
 353 384 353 384 512 384 c 128,-1,17
 671 384 671 384 783.5 271.5 c 128,-1,18
 896 159 896 159 896 0 c 2,19,-1
 896 -64 l 1,20,-1
 896 -384 l 1,21,-1
 768 -384 l 1,22,-1
 768 -64 l 1,23,-1
 256 -64 l 1,24,-1
 193 -64 l 1,12,-1
EndSplineSet
Validated: 1025
EndChar

StartChar: Ibreve
Encoding: 300 300 80
Width: 1024
VWidth: 1689
Flags: W
LayerCount: 2
Fore
SplineSet
128 -256 m 5,0,-1
 256 -256 l 5,1,-1
 256 -384 l 5,2,-1
 128 -384 l 5,3,-1
 128 -256 l 5,0,-1
576 248 m 5,4,5
 576 248 576 248 576 -248 c 5,6,7
 642 -232 642 -232 693 -181 c 4,8,9
 768 -106 768 -106 768 0 c 132,-1,10
 768 106 768 106 693 181 c 4,11,12
 642 232 642 232 576 248 c 5,4,5
448 -319 m 5,13,-1
 448 -256 l 5,14,-1
 448 256 l 5,15,-1
 128 256 l 5,16,-1
 128 384 l 5,17,-1
 448 384 l 5,18,-1
 512 384 l 6,19,20
 671 384 671 384 783.5 271.5 c 132,-1,21
 896 159 896 159 896 0 c 132,-1,22
 896 -159 896 -159 783.5 -271.5 c 132,-1,23
 671 -384 671 -384 512 -384 c 6,24,25
 512 -384 512 -384 448 -384 c 5,26,-1
 448 -319 l 5,13,-1
EndSplineSet
Validated: 1025
EndChar

StartChar: ibreve
Encoding: 301 301 81
Width: 1024
VWidth: 1689
Flags: W
LayerCount: 2
Fore
SplineSet
256 384 m 5,0,-1
 256 256 l 5,1,-1
 128 256 l 5,2,-1
 128 384 l 5,3,-1
 256 384 l 5,0,-1
760 -64 m 5,4,5
 760 -64 760 -64 264 -64 c 5,6,7
 280 -130 280 -130 331 -181 c 4,8,9
 406 -256 406 -256 512 -256 c 132,-1,10
 618 -256 618 -256 693 -181 c 4,11,12
 744 -130 744 -130 760 -64 c 5,4,5
193 64 m 5,13,-1
 256 64 l 5,14,-1
 768 64 l 5,15,-1
 768 384 l 5,16,-1
 896 384 l 5,17,-1
 896 64 l 5,18,-1
 896 0 l 6,19,20
 896 -159 896 -159 783.5 -271.5 c 132,-1,21
 671 -384 671 -384 512 -384 c 132,-1,22
 353 -384 353 -384 240.5 -271.5 c 132,-1,23
 128 -159 128 -159 128 0 c 6,24,25
 128 0 128 0 128 64 c 5,26,-1
 193 64 l 5,13,-1
EndSplineSet
Validated: 1025
EndChar

StartChar: Iogonek
Encoding: 302 302 82
Width: 1024
VWidth: 1689
Flags: W
LayerCount: 2
Fore
SplineSet
896 256 m 5,0,-1
 768 256 l 5,1,-1
 768 384 l 5,2,-1
 896 384 l 5,3,-1
 896 256 l 5,0,-1
448 -248 m 5,4,5
 448 -248 448 -248 448 248 c 5,6,7
 382 232 382 232 331 181 c 4,8,9
 256 106 256 106 256 0 c 132,-1,10
 256 -106 256 -106 331 -181 c 4,11,12
 382 -232 382 -232 448 -248 c 5,4,5
576 319 m 5,13,-1
 576 256 l 5,14,-1
 576 -256 l 5,15,-1
 896 -256 l 5,16,-1
 896 -384 l 5,17,-1
 576 -384 l 5,18,-1
 512 -384 l 6,19,20
 353 -384 353 -384 240.5 -271.5 c 132,-1,21
 128 -159 128 -159 128 0 c 132,-1,22
 128 159 128 159 240.5 271.5 c 132,-1,23
 353 384 353 384 512 384 c 6,24,25
 512 384 512 384 576 384 c 5,26,-1
 576 319 l 5,13,-1
EndSplineSet
Validated: 1025
EndChar

StartChar: iogonek
Encoding: 303 303 83
Width: 1024
VWidth: 1689
Flags: W
LayerCount: 2
Fore
SplineSet
768 -384 m 5,0,-1
 768 -256 l 5,1,-1
 896 -256 l 5,2,-1
 896 -384 l 5,3,-1
 768 -384 l 5,0,-1
264 64 m 5,4,5
 264 64 264 64 760 64 c 5,6,7
 744 130 744 130 693 181 c 4,8,9
 618 256 618 256 512 256 c 132,-1,10
 406 256 406 256 331 181 c 4,11,12
 280 130 280 130 264 64 c 5,4,5
831 -64 m 5,13,-1
 768 -64 l 5,14,-1
 256 -64 l 5,15,-1
 256 -384 l 5,16,-1
 128 -384 l 5,17,-1
 128 -64 l 5,18,-1
 128 0 l 6,19,20
 128 159 128 159 240.5 271.5 c 132,-1,21
 353 384 353 384 512 384 c 132,-1,22
 671 384 671 384 783.5 271.5 c 132,-1,23
 896 159 896 159 896 0 c 6,24,25
 896 0 896 0 896 -64 c 5,26,-1
 831 -64 l 5,13,-1
EndSplineSet
Validated: 1025
EndChar

StartChar: Idotaccent
Encoding: 304 304 84
Width: 1024
VWidth: 1689
Flags: W
LayerCount: 2
Fore
SplineSet
448 -248 m 5,0,-1
 448 384 l 5,1,-1
 576 384 l 5,2,-1
 896 384 l 5,3,-1
 896 256 l 5,4,-1
 576 256 l 5,5,-1
 576 -256 l 5,6,-1
 576 -384 l 5,7,-1
 512 -384 l 6,8,9
 353 -384 353 -384 240.5 -271.5 c 132,-1,10
 128 -159 128 -159 128 0 c 6,11,-1
 128 64 l 5,12,-1
 256 64 l 5,13,-1
 256 0 l 6,14,15
 256 -106 256 -106 331 -181 c 4,16,17
 382 -232 382 -232 448 -248 c 5,0,-1
EndSplineSet
Validated: 1
EndChar

StartChar: dotlessi
Encoding: 305 305 85
Width: 1024
VWidth: 1689
Flags: W
LayerCount: 2
Fore
SplineSet
760 -64 m 5,0,-1
 128 -64 l 5,1,-1
 128 64 l 5,2,-1
 128 384 l 5,3,-1
 256 384 l 5,4,-1
 256 64 l 5,5,-1
 768 64 l 5,6,-1
 896 64 l 5,7,-1
 896 0 l 6,8,9
 896 -159 896 -159 783.5 -271.5 c 132,-1,10
 671 -384 671 -384 512 -384 c 6,11,-1
 448 -384 l 5,12,-1
 448 -256 l 5,13,-1
 512 -256 l 6,14,15
 618 -256 618 -256 693 -181 c 4,16,17
 744 -130 744 -130 760 -64 c 5,0,-1
EndSplineSet
Validated: 1
EndChar

StartChar: IJ
Encoding: 306 306 86
Width: 1024
VWidth: 1689
Flags: W
LayerCount: 2
Fore
SplineSet
576 248 m 5,0,-1
 576 -384 l 5,1,-1
 448 -384 l 5,2,-1
 128 -384 l 5,3,-1
 128 -256 l 5,4,-1
 448 -256 l 5,5,-1
 448 256 l 5,6,-1
 448 384 l 5,7,-1
 512 384 l 6,8,9
 671 384 671 384 783.5 271.5 c 132,-1,10
 896 159 896 159 896 0 c 6,11,-1
 896 -64 l 5,12,-1
 768 -64 l 5,13,-1
 768 0 l 6,14,15
 768 106 768 106 693 181 c 4,16,17
 642 232 642 232 576 248 c 5,0,-1
EndSplineSet
Validated: 1
EndChar

StartChar: ij
Encoding: 307 307 87
Width: 1024
VWidth: 1689
Flags: W
LayerCount: 2
Fore
SplineSet
264 64 m 5,0,-1
 896 64 l 5,1,-1
 896 -64 l 5,2,-1
 896 -384 l 5,3,-1
 768 -384 l 5,4,-1
 768 -64 l 5,5,-1
 256 -64 l 5,6,-1
 128 -64 l 5,7,-1
 128 0 l 6,8,9
 128 159 128 159 240.5 271.5 c 132,-1,10
 353 384 353 384 512 384 c 6,11,-1
 576 384 l 5,12,-1
 576 256 l 5,13,-1
 512 256 l 6,14,15
 406 256 406 256 331 181 c 4,16,17
 280 130 280 130 264 64 c 5,0,-1
EndSplineSet
Validated: 1
EndChar

StartChar: Jcircumflex
Encoding: 308 308 88
Width: 1024
VWidth: 1689
Flags: W
LayerCount: 2
Fore
SplineSet
576 -248 m 1,0,1
 642 -232 642 -232 693 -181 c 0,2,3
 768 -106 768 -106 768 0 c 2,4,5
 768 0 768 0 768 64 c 1,6,-1
 896 64 l 1,7,-1
 896 0 l 2,8,9
 896 -159 896 -159 783.5 -271.5 c 128,-1,10
 671 -384 671 -384 512 -384 c 2,11,12
 512 -384 512 -384 448 -384 c 1,13,-1
 448 -256 l 1,14,-1
 448 256 l 1,15,-1
 128 256 l 1,16,-1
 128 384 l 1,17,-1
 448 384 l 1,18,-1
 576 384 l 1,19,-1
 576 -248 l 1,0,1
EndSplineSet
Validated: 1
EndChar

StartChar: jcircumflex
Encoding: 309 309 89
Width: 1024
VWidth: 1689
Flags: W
LayerCount: 2
Fore
SplineSet
264 -64 m 1,0,1
 280 -130 280 -130 331 -181 c 0,2,3
 406 -256 406 -256 512 -256 c 2,4,5
 512 -256 512 -256 576 -256 c 1,6,-1
 576 -384 l 1,7,-1
 512 -384 l 2,8,9
 353 -384 353 -384 240.5 -271.5 c 128,-1,10
 128 -159 128 -159 128 0 c 2,11,12
 128 0 128 0 128 64 c 1,13,-1
 256 64 l 1,14,-1
 768 64 l 1,15,-1
 768 384 l 1,16,-1
 896 384 l 1,17,-1
 896 64 l 1,18,-1
 896 -64 l 1,19,-1
 264 -64 l 1,0,1
EndSplineSet
Validated: 1
EndChar

StartChar: uni0136
Encoding: 310 310 90
Width: 1024
VWidth: 1689
Flags: W
LayerCount: 2
Fore
SplineSet
448 248 m 1,0,1
 382 232 382 232 331 181 c 0,2,3
 256 106 256 106 256 0 c 2,4,5
 256 0 256 0 256 -64 c 1,6,-1
 128 -64 l 1,7,-1
 128 0 l 2,8,9
 128 159 128 159 240.5 271.5 c 128,-1,10
 353 384 353 384 512 384 c 2,11,12
 512 384 512 384 576 384 c 1,13,-1
 576 256 l 1,14,-1
 576 -256 l 1,15,-1
 896 -256 l 1,16,-1
 896 -384 l 1,17,-1
 576 -384 l 1,18,-1
 448 -384 l 1,19,-1
 448 248 l 1,0,1
EndSplineSet
Validated: 1
EndChar

StartChar: uni0137
Encoding: 311 311 91
Width: 1024
VWidth: 1689
Flags: W
LayerCount: 2
Fore
SplineSet
760 64 m 1,0,1
 744 130 744 130 693 181 c 0,2,3
 618 256 618 256 512 256 c 2,4,5
 512 256 512 256 448 256 c 1,6,-1
 448 384 l 1,7,-1
 512 384 l 2,8,9
 671 384 671 384 783.5 271.5 c 128,-1,10
 896 159 896 159 896 0 c 2,11,12
 896 0 896 0 896 -64 c 1,13,-1
 768 -64 l 1,14,-1
 256 -64 l 1,15,-1
 256 -384 l 1,16,-1
 128 -384 l 1,17,-1
 128 -64 l 1,18,-1
 128 64 l 1,19,-1
 760 64 l 1,0,1
EndSplineSet
Validated: 1
EndChar

StartChar: kgreenlandic
Encoding: 312 312 92
Width: 1024
VWidth: 1689
Flags: W
LayerCount: 2
Fore
SplineSet
896 -256 m 1,0,-1
 896 -384 l 1,1,-1
 768 -384 l 1,2,-1
 768 -256 l 1,3,-1
 896 -256 l 1,0,-1
448 -248 m 1,4,-1
 448 384 l 1,5,-1
 576 384 l 1,6,-1
 896 384 l 1,7,-1
 896 256 l 1,8,-1
 576 256 l 1,9,-1
 576 -256 l 1,10,-1
 576 -384 l 1,11,-1
 512 -384 l 2,12,13
 353 -384 353 -384 240.5 -271.5 c 128,-1,14
 128 -159 128 -159 128 0 c 2,15,-1
 128 64 l 1,16,-1
 256 64 l 1,17,-1
 256 0 l 2,18,19
 256 -106 256 -106 331 -181 c 0,20,21
 382 -232 382 -232 448 -248 c 1,4,-1
EndSplineSet
Validated: 1025
EndChar

StartChar: Lacute
Encoding: 313 313 93
Width: 1024
VWidth: 1689
Flags: W
LayerCount: 2
Fore
SplineSet
768 384 m 1,0,-1
 896 384 l 1,1,-1
 896 256 l 1,2,-1
 768 256 l 1,3,-1
 768 384 l 1,0,-1
760 -64 m 1,4,-1
 128 -64 l 1,5,-1
 128 64 l 1,6,-1
 128 384 l 1,7,-1
 256 384 l 1,8,-1
 256 64 l 1,9,-1
 768 64 l 1,10,-1
 896 64 l 1,11,-1
 896 0 l 2,12,13
 896 -159 896 -159 783.5 -271.5 c 128,-1,14
 671 -384 671 -384 512 -384 c 2,15,-1
 448 -384 l 1,16,-1
 448 -256 l 1,17,-1
 512 -256 l 2,18,19
 618 -256 618 -256 693 -181 c 0,20,21
 744 -130 744 -130 760 -64 c 1,4,-1
EndSplineSet
Validated: 1025
EndChar

StartChar: lacute
Encoding: 314 314 94
Width: 1024
VWidth: 1689
Flags: W
LayerCount: 2
Fore
SplineSet
128 256 m 1,0,-1
 128 384 l 1,1,-1
 256 384 l 1,2,-1
 256 256 l 1,3,-1
 128 256 l 1,0,-1
576 248 m 1,4,-1
 576 -384 l 1,5,-1
 448 -384 l 1,6,-1
 128 -384 l 1,7,-1
 128 -256 l 1,8,-1
 448 -256 l 1,9,-1
 448 256 l 1,10,-1
 448 384 l 1,11,-1
 512 384 l 2,12,13
 671 384 671 384 783.5 271.5 c 128,-1,14
 896 159 896 159 896 0 c 2,15,-1
 896 -64 l 1,16,-1
 768 -64 l 1,17,-1
 768 0 l 2,18,19
 768 106 768 106 693 181 c 0,20,21
 642 232 642 232 576 248 c 1,4,-1
EndSplineSet
Validated: 1025
EndChar

StartChar: uni013B
Encoding: 315 315 95
Width: 1024
VWidth: 1689
Flags: W
LayerCount: 2
Fore
SplineSet
256 -384 m 1,0,-1
 128 -384 l 1,1,-1
 128 -256 l 1,2,-1
 256 -256 l 1,3,-1
 256 -384 l 1,0,-1
264 64 m 1,4,-1
 896 64 l 1,5,-1
 896 -64 l 1,6,-1
 896 -384 l 1,7,-1
 768 -384 l 1,8,-1
 768 -64 l 1,9,-1
 256 -64 l 1,10,-1
 128 -64 l 1,11,-1
 128 0 l 2,12,13
 128 159 128 159 240.5 271.5 c 128,-1,14
 353 384 353 384 512 384 c 2,15,-1
 576 384 l 1,16,-1
 576 256 l 1,17,-1
 512 256 l 2,18,19
 406 256 406 256 331 181 c 0,20,21
 280 130 280 130 264 64 c 1,4,-1
EndSplineSet
Validated: 1025
EndChar

StartChar: uni013C
Encoding: 316 316 96
Width: 1024
VWidth: 1689
Flags: W
LayerCount: 2
Fore
SplineSet
128 -256 m 1,0,-1
 256 -256 l 1,1,-1
 256 -384 l 1,2,-1
 128 -384 l 1,3,-1
 128 -256 l 1,0,-1
576 -248 m 1,4,5
 642 -232 642 -232 693 -181 c 0,6,7
 768 -106 768 -106 768 0 c 2,8,9
 768 0 768 0 768 64 c 1,10,-1
 896 64 l 1,11,-1
 896 0 l 2,12,13
 896 -159 896 -159 783.5 -271.5 c 128,-1,14
 671 -384 671 -384 512 -384 c 2,15,16
 512 -384 512 -384 448 -384 c 1,17,-1
 448 -256 l 1,18,-1
 448 256 l 1,19,-1
 128 256 l 1,20,-1
 128 384 l 1,21,-1
 448 384 l 1,22,-1
 576 384 l 1,23,-1
 576 -248 l 1,4,5
EndSplineSet
Validated: 1025
EndChar

StartChar: Lcaron
Encoding: 317 317 97
Width: 1024
VWidth: 1689
Flags: W
LayerCount: 2
Fore
SplineSet
256 384 m 1,0,-1
 256 256 l 1,1,-1
 128 256 l 1,2,-1
 128 384 l 1,3,-1
 256 384 l 1,0,-1
264 -64 m 1,4,5
 280 -130 280 -130 331 -181 c 0,6,7
 406 -256 406 -256 512 -256 c 2,8,9
 512 -256 512 -256 576 -256 c 1,10,-1
 576 -384 l 1,11,-1
 512 -384 l 2,12,13
 353 -384 353 -384 240.5 -271.5 c 128,-1,14
 128 -159 128 -159 128 0 c 2,15,16
 128 0 128 0 128 64 c 1,17,-1
 256 64 l 1,18,-1
 768 64 l 1,19,-1
 768 384 l 1,20,-1
 896 384 l 1,21,-1
 896 64 l 1,22,-1
 896 -64 l 1,23,-1
 264 -64 l 1,4,5
EndSplineSet
Validated: 1025
EndChar

StartChar: lcaron
Encoding: 318 318 98
Width: 1024
VWidth: 1689
Flags: W
LayerCount: 2
Fore
SplineSet
896 256 m 1,0,-1
 768 256 l 1,1,-1
 768 384 l 1,2,-1
 896 384 l 1,3,-1
 896 256 l 1,0,-1
448 248 m 1,4,5
 382 232 382 232 331 181 c 0,6,7
 256 106 256 106 256 0 c 2,8,9
 256 0 256 0 256 -64 c 1,10,-1
 128 -64 l 1,11,-1
 128 0 l 2,12,13
 128 159 128 159 240.5 271.5 c 128,-1,14
 353 384 353 384 512 384 c 2,15,16
 512 384 512 384 576 384 c 1,17,-1
 576 256 l 1,18,-1
 576 -256 l 1,19,-1
 896 -256 l 1,20,-1
 896 -384 l 1,21,-1
 576 -384 l 1,22,-1
 448 -384 l 1,23,-1
 448 248 l 1,4,5
EndSplineSet
Validated: 1025
EndChar

StartChar: Ldot
Encoding: 319 319 99
Width: 1024
VWidth: 1689
Flags: W
LayerCount: 2
Fore
SplineSet
768 -384 m 1,0,-1
 768 -256 l 1,1,-1
 896 -256 l 1,2,-1
 896 -384 l 1,3,-1
 768 -384 l 1,0,-1
760 64 m 1,4,5
 744 130 744 130 693 181 c 0,6,7
 618 256 618 256 512 256 c 2,8,9
 512 256 512 256 448 256 c 1,10,-1
 448 384 l 1,11,-1
 512 384 l 2,12,13
 671 384 671 384 783.5 271.5 c 128,-1,14
 896 159 896 159 896 0 c 2,15,16
 896 0 896 0 896 -64 c 1,17,-1
 768 -64 l 1,18,-1
 256 -64 l 1,19,-1
 256 -384 l 1,20,-1
 128 -384 l 1,21,-1
 128 -64 l 1,22,-1
 128 64 l 1,23,-1
 760 64 l 1,4,5
EndSplineSet
Validated: 1025
EndChar

StartChar: at
Encoding: 64 64 100
Width: 1024
VWidth: 1689
Flags: W
LayerCount: 2
Fore
SplineSet
576 256 m 5,0,-1
 512 256 l 6,1,2
 406 256 406 256 331 181 c 132,-1,3
 256 106 256 106 256 0 c 132,-1,4
 256 -106 256 -106 331 -181 c 132,-1,5
 406 -256 406 -256 512 -256 c 6,6,-1
 576 -256 l 5,7,-1
 576 -384 l 5,8,-1
 512 -384 l 6,9,10
 353 -384 353 -384 240.5 -271.5 c 132,-1,11
 128 -159 128 -159 128 0 c 132,-1,12
 128 159 128 159 240.5 271.5 c 132,-1,13
 353 384 353 384 512 384 c 6,14,-1
 576 384 l 5,15,-1
 896 384 l 5,16,-1
 896 256 l 5,17,-1
 576 256 l 5,0,-1
EndSplineSet
Validated: 1
EndChar

StartChar: A
Encoding: 65 65 101
Width: 1024
VWidth: 1689
Flags: W
LayerCount: 2
Fore
SplineSet
896 -256 m 5,0,-1
 896 -384 l 5,1,-1
 768 -384 l 5,2,-1
 768 -256 l 5,3,-1
 896 -256 l 5,0,-1
576 256 m 1,4,-1
 512 256 l 2,5,6
 406 256 406 256 331 181 c 128,-1,7
 256 106 256 106 256 0 c 128,-1,8
 256 -106 256 -106 331 -181 c 128,-1,9
 406 -256 406 -256 512 -256 c 2,10,-1
 576 -256 l 1,11,-1
 576 -384 l 1,12,-1
 512 -384 l 2,13,14
 353 -384 353 -384 240.5 -271.5 c 128,-1,15
 128 -159 128 -159 128 0 c 128,-1,16
 128 159 128 159 240.5 271.5 c 128,-1,17
 353 384 353 384 512 384 c 2,18,-1
 576 384 l 1,19,-1
 896 384 l 1,20,-1
 896 256 l 1,21,-1
 576 256 l 1,4,-1
EndSplineSet
EndChar

StartChar: B
Encoding: 66 66 102
Width: 1024
VWidth: 1689
Flags: W
LayerCount: 2
Fore
SplineSet
256 64 m 5,0,-1
 256 0 l 6,1,2
 256 -106 256 -106 331 -181 c 132,-1,3
 406 -256 406 -256 512 -256 c 132,-1,4
 618 -256 618 -256 693 -181 c 132,-1,5
 768 -106 768 -106 768 0 c 6,6,-1
 768 64 l 5,7,-1
 896 64 l 5,8,-1
 896 0 l 6,9,10
 896 -159 896 -159 783.5 -271.5 c 132,-1,11
 671 -384 671 -384 512 -384 c 132,-1,12
 353 -384 353 -384 240.5 -271.5 c 132,-1,13
 128 -159 128 -159 128 0 c 6,14,-1
 128 64 l 5,15,-1
 128 384 l 5,16,-1
 256 384 l 5,17,-1
 256 64 l 5,0,-1
EndSplineSet
EndChar

StartChar: C
Encoding: 67 67 103
Width: 1024
VWidth: 1689
Flags: W
LayerCount: 2
Fore
SplineSet
768 384 m 5,0,-1
 896 384 l 5,1,-1
 896 256 l 5,2,-1
 768 256 l 5,3,-1
 768 384 l 5,0,-1
256 64 m 1,4,-1
 256 0 l 2,5,6
 256 -106 256 -106 331 -181 c 128,-1,7
 406 -256 406 -256 512 -256 c 128,-1,8
 618 -256 618 -256 693 -181 c 128,-1,9
 768 -106 768 -106 768 0 c 2,10,-1
 768 64 l 1,11,-1
 896 64 l 1,12,-1
 896 0 l 2,13,14
 896 -159 896 -159 783.5 -271.5 c 128,-1,15
 671 -384 671 -384 512 -384 c 128,-1,16
 353 -384 353 -384 240.5 -271.5 c 128,-1,17
 128 -159 128 -159 128 0 c 2,18,-1
 128 64 l 1,19,-1
 128 384 l 1,20,-1
 256 384 l 1,21,-1
 256 64 l 1,4,-1
EndSplineSet
EndChar

StartChar: D
Encoding: 68 68 104
Width: 1024
VWidth: 1689
Flags: W
LayerCount: 2
Fore
SplineSet
448 -256 m 5,0,-1
 512 -256 l 6,1,2
 618 -256 618 -256 693 -181 c 132,-1,3
 768 -106 768 -106 768 0 c 132,-1,4
 768 106 768 106 693 181 c 132,-1,5
 618 256 618 256 512 256 c 6,6,-1
 448 256 l 5,7,-1
 448 384 l 5,8,-1
 512 384 l 6,9,10
 671 384 671 384 783.5 271.5 c 132,-1,11
 896 159 896 159 896 0 c 132,-1,12
 896 -159 896 -159 783.5 -271.5 c 132,-1,13
 671 -384 671 -384 512 -384 c 6,14,-1
 448 -384 l 5,15,-1
 128 -384 l 5,16,-1
 128 -256 l 5,17,-1
 448 -256 l 5,0,-1
EndSplineSet
EndChar

StartChar: E
Encoding: 69 69 105
Width: 1024
VWidth: 1689
Flags: W
LayerCount: 2
Fore
SplineSet
128 256 m 5,0,-1
 128 384 l 5,1,-1
 256 384 l 5,2,-1
 256 256 l 5,3,-1
 128 256 l 5,0,-1
448 -256 m 1,4,-1
 512 -256 l 2,5,6
 618 -256 618 -256 693 -181 c 128,-1,7
 768 -106 768 -106 768 0 c 128,-1,8
 768 106 768 106 693 181 c 128,-1,9
 618 256 618 256 512 256 c 2,10,-1
 448 256 l 1,11,-1
 448 384 l 1,12,-1
 512 384 l 2,13,14
 671 384 671 384 783.5 271.5 c 128,-1,15
 896 159 896 159 896 0 c 128,-1,16
 896 -159 896 -159 783.5 -271.5 c 128,-1,17
 671 -384 671 -384 512 -384 c 2,18,-1
 448 -384 l 1,19,-1
 128 -384 l 1,20,-1
 128 -256 l 1,21,-1
 448 -256 l 1,4,-1
EndSplineSet
EndChar

StartChar: F
Encoding: 70 70 106
Width: 1024
VWidth: 1689
Flags: W
LayerCount: 2
Fore
SplineSet
768 -64 m 5,0,-1
 768 0 l 6,1,2
 768 106 768 106 693 181 c 132,-1,3
 618 256 618 256 512 256 c 132,-1,4
 406 256 406 256 331 181 c 132,-1,5
 256 106 256 106 256 0 c 6,6,-1
 256 -64 l 5,7,-1
 128 -64 l 5,8,-1
 128 0 l 6,9,10
 128 159 128 159 240.5 271.5 c 132,-1,11
 353 384 353 384 512 384 c 132,-1,12
 671 384 671 384 783.5 271.5 c 132,-1,13
 896 159 896 159 896 0 c 6,14,-1
 896 -64 l 5,15,-1
 896 -384 l 5,16,-1
 768 -384 l 5,17,-1
 768 -64 l 5,0,-1
EndSplineSet
EndChar

StartChar: G
Encoding: 71 71 107
Width: 1024
VWidth: 1689
Flags: W
LayerCount: 2
Fore
SplineSet
256 -384 m 5,0,-1
 128 -384 l 5,1,-1
 128 -256 l 5,2,-1
 256 -256 l 5,3,-1
 256 -384 l 5,0,-1
768 -64 m 1,4,-1
 768 0 l 2,5,6
 768 106 768 106 693 181 c 128,-1,7
 618 256 618 256 512 256 c 128,-1,8
 406 256 406 256 331 181 c 128,-1,9
 256 106 256 106 256 0 c 2,10,-1
 256 -64 l 1,11,-1
 128 -64 l 1,12,-1
 128 0 l 2,13,14
 128 159 128 159 240.5 271.5 c 128,-1,15
 353 384 353 384 512 384 c 128,-1,16
 671 384 671 384 783.5 271.5 c 128,-1,17
 896 159 896 159 896 0 c 2,18,-1
 896 -64 l 1,19,-1
 896 -384 l 1,20,-1
 768 -384 l 1,21,-1
 768 -64 l 1,4,-1
EndSplineSet
EndChar

StartChar: H
Encoding: 72 72 108
Width: 1024
VWidth: 1689
Flags: W
LayerCount: 2
Fore
SplineSet
256 -64 m 1,0,-1
 256 -384 l 1,1,-1
 128 -384 l 1,2,-1
 128 -64 l 1,3,-1
 128 0 l 2,4,5
 128 159 128 159 240.5 271.5 c 128,-1,6
 353 384 353 384 512 384 c 128,-1,7
 671 384 671 384 783.5 271.5 c 128,-1,8
 896 159 896 159 896 0 c 2,9,10
 896 0 896 0 896 -64 c 1,11,-1
 768 -64 l 1,12,-1
 768 0 l 2,13,14
 768 106 768 106 693 181 c 128,-1,15
 618 256 618 256 512 256 c 128,-1,16
 406 256 406 256 331 181 c 128,-1,17
 256 106 256 106 256 0 c 2,18,19
 256 0 256 0 256 -64 c 1,0,-1
EndSplineSet
EndChar

StartChar: I
Encoding: 73 73 109
Width: 1024
VWidth: 1689
Flags: W
LayerCount: 2
Fore
SplineSet
768 -384 m 5,0,-1
 768 -256 l 5,1,-1
 896 -256 l 5,2,-1
 896 -384 l 5,3,-1
 768 -384 l 5,0,-1
256 -64 m 5,4,-1
 256 -384 l 5,5,-1
 128 -384 l 5,6,-1
 128 -64 l 5,7,-1
 128 0 l 6,8,9
 128 159 128 159 240.5 271.5 c 132,-1,10
 353 384 353 384 512 384 c 132,-1,11
 671 384 671 384 783.5 271.5 c 132,-1,12
 896 159 896 159 896 0 c 6,13,14
 896 0 896 0 896 -64 c 5,15,-1
 768 -64 l 5,16,-1
 768 0 l 6,17,18
 768 106 768 106 693 181 c 132,-1,19
 618 256 618 256 512 256 c 132,-1,20
 406 256 406 256 331 181 c 132,-1,21
 256 106 256 106 256 0 c 6,22,23
 256 0 256 0 256 -64 c 5,4,-1
EndSplineSet
EndChar

StartChar: J
Encoding: 74 74 110
Width: 1024
VWidth: 1689
Flags: W
LayerCount: 2
Fore
SplineSet
576 -256 m 1,0,-1
 896 -256 l 1,1,-1
 896 -384 l 1,2,-1
 576 -384 l 1,3,-1
 512 -384 l 2,4,5
 353 -384 353 -384 240.5 -271.5 c 128,-1,6
 128 -159 128 -159 128 0 c 128,-1,7
 128 159 128 159 240.5 271.5 c 128,-1,8
 353 384 353 384 512 384 c 2,9,10
 512 384 512 384 576 384 c 1,11,-1
 576 256 l 1,12,-1
 512 256 l 2,13,14
 406 256 406 256 331 181 c 128,-1,15
 256 106 256 106 256 0 c 128,-1,16
 256 -106 256 -106 331 -181 c 128,-1,17
 406 -256 406 -256 512 -256 c 2,18,19
 512 -256 512 -256 576 -256 c 1,0,-1
EndSplineSet
EndChar

StartChar: K
Encoding: 75 75 111
Width: 1024
VWidth: 1689
Flags: W
LayerCount: 2
Fore
SplineSet
896 256 m 5,0,-1
 768 256 l 5,1,-1
 768 384 l 5,2,-1
 896 384 l 5,3,-1
 896 256 l 5,0,-1
576 -256 m 5,4,-1
 896 -256 l 5,5,-1
 896 -384 l 5,6,-1
 576 -384 l 5,7,-1
 512 -384 l 6,8,9
 353 -384 353 -384 240.5 -271.5 c 132,-1,10
 128 -159 128 -159 128 0 c 132,-1,11
 128 159 128 159 240.5 271.5 c 132,-1,12
 353 384 353 384 512 384 c 6,13,14
 512 384 512 384 576 384 c 5,15,-1
 576 256 l 5,16,-1
 512 256 l 6,17,18
 406 256 406 256 331 181 c 132,-1,19
 256 106 256 106 256 0 c 132,-1,20
 256 -106 256 -106 331 -181 c 132,-1,21
 406 -256 406 -256 512 -256 c 6,22,23
 512 -256 512 -256 576 -256 c 5,4,-1
EndSplineSet
EndChar

StartChar: L
Encoding: 76 76 112
Width: 1024
VWidth: 1689
Flags: W
LayerCount: 2
Fore
SplineSet
768 64 m 1,0,-1
 768 384 l 1,1,-1
 896 384 l 1,2,-1
 896 64 l 1,3,-1
 896 0 l 2,4,5
 896 -159 896 -159 783.5 -271.5 c 128,-1,6
 671 -384 671 -384 512 -384 c 128,-1,7
 353 -384 353 -384 240.5 -271.5 c 128,-1,8
 128 -159 128 -159 128 0 c 2,9,10
 128 0 128 0 128 64 c 1,11,-1
 256 64 l 1,12,-1
 256 0 l 2,13,14
 256 -106 256 -106 331 -181 c 128,-1,15
 406 -256 406 -256 512 -256 c 128,-1,16
 618 -256 618 -256 693 -181 c 128,-1,17
 768 -106 768 -106 768 0 c 2,18,19
 768 0 768 0 768 64 c 1,0,-1
EndSplineSet
EndChar

StartChar: M
Encoding: 77 77 113
Width: 1024
VWidth: 1689
Flags: W
LayerCount: 2
Fore
SplineSet
256 384 m 5,0,-1
 256 256 l 5,1,-1
 128 256 l 5,2,-1
 128 384 l 5,3,-1
 256 384 l 5,0,-1
768 64 m 5,4,-1
 768 384 l 5,5,-1
 896 384 l 5,6,-1
 896 64 l 5,7,-1
 896 0 l 6,8,9
 896 -159 896 -159 783.5 -271.5 c 132,-1,10
 671 -384 671 -384 512 -384 c 132,-1,11
 353 -384 353 -384 240.5 -271.5 c 132,-1,12
 128 -159 128 -159 128 0 c 6,13,14
 128 0 128 0 128 64 c 5,15,-1
 256 64 l 5,16,-1
 256 0 l 6,17,18
 256 -106 256 -106 331 -181 c 132,-1,19
 406 -256 406 -256 512 -256 c 132,-1,20
 618 -256 618 -256 693 -181 c 132,-1,21
 768 -106 768 -106 768 0 c 6,22,23
 768 0 768 0 768 64 c 5,4,-1
EndSplineSet
EndChar

StartChar: N
Encoding: 78 78 114
Width: 1024
VWidth: 1689
Flags: W
LayerCount: 2
Fore
SplineSet
448 256 m 1,0,-1
 128 256 l 1,1,-1
 128 384 l 1,2,-1
 448 384 l 1,3,-1
 512 384 l 2,4,5
 671 384 671 384 783.5 271.5 c 128,-1,6
 896 159 896 159 896 0 c 128,-1,7
 896 -159 896 -159 783.5 -271.5 c 128,-1,8
 671 -384 671 -384 512 -384 c 2,9,10
 512 -384 512 -384 448 -384 c 1,11,-1
 448 -256 l 1,12,-1
 512 -256 l 2,13,14
 618 -256 618 -256 693 -181 c 128,-1,15
 768 -106 768 -106 768 0 c 128,-1,16
 768 106 768 106 693 181 c 128,-1,17
 618 256 618 256 512 256 c 2,18,19
 512 256 512 256 448 256 c 1,0,-1
EndSplineSet
EndChar

StartChar: O
Encoding: 79 79 115
Width: 1024
VWidth: 1689
Flags: W
LayerCount: 2
Fore
SplineSet
128 -256 m 5,0,-1
 256 -256 l 5,1,-1
 256 -384 l 5,2,-1
 128 -384 l 5,3,-1
 128 -256 l 5,0,-1
448 256 m 5,4,-1
 128 256 l 5,5,-1
 128 384 l 5,6,-1
 448 384 l 5,7,-1
 512 384 l 6,8,9
 671 384 671 384 783.5 271.5 c 132,-1,10
 896 159 896 159 896 0 c 132,-1,11
 896 -159 896 -159 783.5 -271.5 c 132,-1,12
 671 -384 671 -384 512 -384 c 6,13,14
 512 -384 512 -384 448 -384 c 5,15,-1
 448 -256 l 5,16,-1
 512 -256 l 6,17,18
 618 -256 618 -256 693 -181 c 132,-1,19
 768 -106 768 -106 768 0 c 132,-1,20
 768 106 768 106 693 181 c 132,-1,21
 618 256 618 256 512 256 c 6,22,23
 512 256 512 256 448 256 c 5,4,-1
EndSplineSet
EndChar

StartChar: P
Encoding: 80 80 116
Width: 1024
VWidth: 1689
Flags: W
LayerCount: 2
Fore
SplineSet
576 256 m 5,0,-1
 512 256 l 6,1,2
 406 256 406 256 331 181 c 132,-1,3
 256 106 256 106 256 0 c 132,-1,4
 256 -106 256 -106 331 -181 c 132,-1,5
 406 -256 406 -256 512 -256 c 6,6,-1
 576 -256 l 5,7,-1
 576 -384 l 5,8,-1
 512 -384 l 6,9,10
 353 -384 353 -384 240.5 -271.5 c 132,-1,11
 128 -159 128 -159 128 0 c 132,-1,12
 128 159 128 159 240.5 271.5 c 132,-1,13
 353 384 353 384 512 384 c 6,14,-1
 576 384 l 5,15,-1
 768 384 l 5,16,-1
 896 384 l 5,17,-1
 896 256 l 5,18,-1
 896 -64 l 5,19,-1
 768 -64 l 5,20,-1
 768 256 l 5,21,-1
 576 256 l 5,0,-1
EndSplineSet
EndChar

StartChar: Q
Encoding: 81 81 117
Width: 1024
VWidth: 1689
Flags: W
LayerCount: 2
Fore
SplineSet
896 -256 m 5,0,-1
 896 -384 l 5,1,-1
 768 -384 l 5,2,-1
 768 -256 l 5,3,-1
 896 -256 l 5,0,-1
576 256 m 1,4,-1
 512 256 l 2,5,6
 406 256 406 256 331 181 c 128,-1,7
 256 106 256 106 256 0 c 128,-1,8
 256 -106 256 -106 331 -181 c 128,-1,9
 406 -256 406 -256 512 -256 c 2,10,-1
 576 -256 l 1,11,-1
 576 -384 l 1,12,-1
 512 -384 l 2,13,14
 353 -384 353 -384 240.5 -271.5 c 128,-1,15
 128 -159 128 -159 128 0 c 128,-1,16
 128 159 128 159 240.5 271.5 c 128,-1,17
 353 384 353 384 512 384 c 2,18,-1
 576 384 l 1,19,-1
 768 384 l 1,20,-1
 896 384 l 1,21,-1
 896 256 l 1,22,-1
 896 -64 l 1,23,-1
 768 -64 l 1,24,-1
 768 256 l 1,25,-1
 576 256 l 1,4,-1
EndSplineSet
EndChar

StartChar: R
Encoding: 82 82 118
Width: 1024
VWidth: 1689
Flags: W
LayerCount: 2
Fore
SplineSet
256 64 m 5,0,-1
 256 0 l 6,1,2
 256 -106 256 -106 331 -181 c 132,-1,3
 406 -256 406 -256 512 -256 c 132,-1,4
 618 -256 618 -256 693 -181 c 132,-1,5
 768 -106 768 -106 768 0 c 6,6,-1
 768 64 l 5,7,-1
 896 64 l 5,8,-1
 896 0 l 6,9,10
 896 -159 896 -159 783.5 -271.5 c 132,-1,11
 671 -384 671 -384 512 -384 c 132,-1,12
 353 -384 353 -384 240.5 -271.5 c 132,-1,13
 128 -159 128 -159 128 0 c 6,14,-1
 128 64 l 5,15,-1
 128 256 l 5,16,-1
 128 384 l 5,17,-1
 256 384 l 5,18,-1
 576 384 l 5,19,-1
 576 256 l 5,20,-1
 256 256 l 5,21,-1
 256 64 l 5,0,-1
EndSplineSet
EndChar

StartChar: S
Encoding: 83 83 119
Width: 1024
VWidth: 1689
Flags: W
LayerCount: 2
Fore
SplineSet
768 384 m 5,0,-1
 896 384 l 5,1,-1
 896 256 l 5,2,-1
 768 256 l 5,3,-1
 768 384 l 5,0,-1
256 64 m 1,4,-1
 256 0 l 2,5,6
 256 -106 256 -106 331 -181 c 128,-1,7
 406 -256 406 -256 512 -256 c 128,-1,8
 618 -256 618 -256 693 -181 c 128,-1,9
 768 -106 768 -106 768 0 c 2,10,-1
 768 64 l 1,11,-1
 896 64 l 1,12,-1
 896 0 l 2,13,14
 896 -159 896 -159 783.5 -271.5 c 128,-1,15
 671 -384 671 -384 512 -384 c 128,-1,16
 353 -384 353 -384 240.5 -271.5 c 128,-1,17
 128 -159 128 -159 128 0 c 2,18,-1
 128 64 l 1,19,-1
 128 256 l 1,20,-1
 128 384 l 1,21,-1
 256 384 l 1,22,-1
 576 384 l 1,23,-1
 576 256 l 1,24,-1
 256 256 l 1,25,-1
 256 64 l 1,4,-1
EndSplineSet
EndChar

StartChar: T
Encoding: 84 84 120
Width: 1024
VWidth: 1689
Flags: W
LayerCount: 2
Fore
SplineSet
448 -256 m 5,0,-1
 512 -256 l 6,1,2
 618 -256 618 -256 693 -181 c 132,-1,3
 768 -106 768 -106 768 0 c 132,-1,4
 768 106 768 106 693 181 c 132,-1,5
 618 256 618 256 512 256 c 6,6,-1
 448 256 l 5,7,-1
 448 384 l 5,8,-1
 512 384 l 6,9,10
 671 384 671 384 783.5 271.5 c 132,-1,11
 896 159 896 159 896 0 c 132,-1,12
 896 -159 896 -159 783.5 -271.5 c 132,-1,13
 671 -384 671 -384 512 -384 c 6,14,-1
 448 -384 l 5,15,-1
 256 -384 l 5,16,-1
 128 -384 l 5,17,-1
 128 -256 l 5,18,-1
 128 64 l 5,19,-1
 256 64 l 5,20,-1
 256 -256 l 5,21,-1
 448 -256 l 5,0,-1
EndSplineSet
EndChar

StartChar: U
Encoding: 85 85 121
Width: 1024
VWidth: 1689
Flags: W
LayerCount: 2
Fore
SplineSet
128 256 m 5,0,-1
 128 384 l 5,1,-1
 256 384 l 5,2,-1
 256 256 l 5,3,-1
 128 256 l 5,0,-1
448 -256 m 1,4,-1
 512 -256 l 2,5,6
 618 -256 618 -256 693 -181 c 128,-1,7
 768 -106 768 -106 768 0 c 128,-1,8
 768 106 768 106 693 181 c 128,-1,9
 618 256 618 256 512 256 c 2,10,-1
 448 256 l 1,11,-1
 448 384 l 1,12,-1
 512 384 l 2,13,14
 671 384 671 384 783.5 271.5 c 128,-1,15
 896 159 896 159 896 0 c 128,-1,16
 896 -159 896 -159 783.5 -271.5 c 128,-1,17
 671 -384 671 -384 512 -384 c 2,18,-1
 448 -384 l 1,19,-1
 256 -384 l 1,20,-1
 128 -384 l 1,21,-1
 128 -256 l 1,22,-1
 128 64 l 1,23,-1
 256 64 l 1,24,-1
 256 -256 l 1,25,-1
 448 -256 l 1,4,-1
EndSplineSet
EndChar

StartChar: V
Encoding: 86 86 122
Width: 1024
VWidth: 1689
Flags: W
LayerCount: 2
Fore
SplineSet
768 -64 m 5,0,-1
 768 0 l 6,1,2
 768 106 768 106 693 181 c 132,-1,3
 618 256 618 256 512 256 c 132,-1,4
 406 256 406 256 331 181 c 132,-1,5
 256 106 256 106 256 0 c 6,6,-1
 256 -64 l 5,7,-1
 128 -64 l 5,8,-1
 128 0 l 6,9,10
 128 159 128 159 240.5 271.5 c 132,-1,11
 353 384 353 384 512 384 c 132,-1,12
 671 384 671 384 783.5 271.5 c 132,-1,13
 896 159 896 159 896 0 c 6,14,-1
 896 -64 l 5,15,-1
 896 -256 l 5,16,-1
 896 -384 l 5,17,-1
 768 -384 l 5,18,-1
 448 -384 l 5,19,-1
 448 -256 l 5,20,-1
 768 -256 l 5,21,-1
 768 -64 l 5,0,-1
EndSplineSet
EndChar

StartChar: W
Encoding: 87 87 123
Width: 1024
VWidth: 1689
Flags: W
LayerCount: 2
Fore
SplineSet
256 -384 m 5,0,-1
 128 -384 l 5,1,-1
 128 -256 l 5,2,-1
 256 -256 l 5,3,-1
 256 -384 l 5,0,-1
768 -64 m 1,4,-1
 768 0 l 2,5,6
 768 106 768 106 693 181 c 128,-1,7
 618 256 618 256 512 256 c 128,-1,8
 406 256 406 256 331 181 c 128,-1,9
 256 106 256 106 256 0 c 2,10,-1
 256 -64 l 1,11,-1
 128 -64 l 1,12,-1
 128 0 l 2,13,14
 128 159 128 159 240.5 271.5 c 128,-1,15
 353 384 353 384 512 384 c 128,-1,16
 671 384 671 384 783.5 271.5 c 128,-1,17
 896 159 896 159 896 0 c 2,18,-1
 896 -64 l 1,19,-1
 896 -256 l 1,20,-1
 896 -384 l 1,21,-1
 768 -384 l 1,22,-1
 448 -384 l 1,23,-1
 448 -256 l 1,24,-1
 768 -256 l 1,25,-1
 768 -64 l 1,4,-1
EndSplineSet
EndChar

StartChar: X
Encoding: 88 88 124
Width: 1024
VWidth: 1689
Flags: W
LayerCount: 2
Fore
SplineSet
256 -64 m 1,0,-1
 256 -256 l 1,1,-1
 576 -256 l 1,2,-1
 576 -384 l 1,3,-1
 256 -384 l 1,4,-1
 128 -384 l 1,5,-1
 128 -256 l 1,6,-1
 128 -64 l 1,7,-1
 128 0 l 2,8,9
 128 159 128 159 240.5 271.5 c 128,-1,10
 353 384 353 384 512 384 c 128,-1,11
 671 384 671 384 783.5 271.5 c 128,-1,12
 896 159 896 159 896 0 c 2,13,14
 896 0 896 0 896 -64 c 1,15,-1
 768 -64 l 1,16,-1
 768 0 l 2,17,18
 768 106 768 106 693 181 c 128,-1,19
 618 256 618 256 512 256 c 128,-1,20
 406 256 406 256 331 181 c 128,-1,21
 256 106 256 106 256 0 c 2,22,23
 256 0 256 0 256 -64 c 1,0,-1
EndSplineSet
EndChar

StartChar: Y
Encoding: 89 89 125
Width: 1024
VWidth: 1689
Flags: W
LayerCount: 2
Fore
SplineSet
768 -384 m 5,0,-1
 768 -256 l 5,1,-1
 896 -256 l 5,2,-1
 896 -384 l 5,3,-1
 768 -384 l 5,0,-1
256 -64 m 5,4,-1
 256 -256 l 5,5,-1
 576 -256 l 5,6,-1
 576 -384 l 5,7,-1
 256 -384 l 5,8,-1
 128 -384 l 5,9,-1
 128 -256 l 5,10,-1
 128 -64 l 5,11,-1
 128 0 l 6,12,13
 128 159 128 159 240.5 271.5 c 132,-1,14
 353 384 353 384 512 384 c 132,-1,15
 671 384 671 384 783.5 271.5 c 132,-1,16
 896 159 896 159 896 0 c 6,17,18
 896 0 896 0 896 -64 c 5,19,-1
 768 -64 l 5,20,-1
 768 0 l 6,21,22
 768 106 768 106 693 181 c 132,-1,23
 618 256 618 256 512 256 c 132,-1,24
 406 256 406 256 331 181 c 132,-1,25
 256 106 256 106 256 0 c 6,26,27
 256 0 256 0 256 -64 c 5,4,-1
EndSplineSet
EndChar

StartChar: Z
Encoding: 90 90 126
Width: 1024
VWidth: 1689
Flags: W
LayerCount: 2
Fore
SplineSet
576 -256 m 1,0,-1
 768 -256 l 1,1,-1
 768 64 l 1,2,-1
 896 64 l 1,3,-1
 896 -256 l 1,4,-1
 896 -384 l 1,5,-1
 768 -384 l 1,6,-1
 576 -384 l 1,7,-1
 512 -384 l 2,8,9
 353 -384 353 -384 240.5 -271.5 c 128,-1,10
 128 -159 128 -159 128 0 c 128,-1,11
 128 159 128 159 240.5 271.5 c 128,-1,12
 353 384 353 384 512 384 c 2,13,14
 512 384 512 384 576 384 c 1,15,-1
 576 256 l 1,16,-1
 512 256 l 2,17,18
 406 256 406 256 331 181 c 128,-1,19
 256 106 256 106 256 0 c 128,-1,20
 256 -106 256 -106 331 -181 c 128,-1,21
 406 -256 406 -256 512 -256 c 2,22,23
 512 -256 512 -256 576 -256 c 1,0,-1
EndSplineSet
EndChar

StartChar: bracketleft
Encoding: 91 91 127
Width: 1024
VWidth: 1689
Flags: W
LayerCount: 2
Fore
SplineSet
896 256 m 5,0,-1
 768 256 l 5,1,-1
 768 384 l 5,2,-1
 896 384 l 5,3,-1
 896 256 l 5,0,-1
576 -256 m 5,4,-1
 768 -256 l 5,5,-1
 768 64 l 5,6,-1
 896 64 l 5,7,-1
 896 -256 l 5,8,-1
 896 -384 l 5,9,-1
 768 -384 l 5,10,-1
 576 -384 l 5,11,-1
 512 -384 l 6,12,13
 353 -384 353 -384 240.5 -271.5 c 132,-1,14
 128 -159 128 -159 128 0 c 132,-1,15
 128 159 128 159 240.5 271.5 c 132,-1,16
 353 384 353 384 512 384 c 6,17,18
 512 384 512 384 576 384 c 5,19,-1
 576 256 l 5,20,-1
 512 256 l 6,21,22
 406 256 406 256 331 181 c 132,-1,23
 256 106 256 106 256 0 c 132,-1,24
 256 -106 256 -106 331 -181 c 132,-1,25
 406 -256 406 -256 512 -256 c 6,26,27
 512 -256 512 -256 576 -256 c 5,4,-1
EndSplineSet
EndChar

StartChar: backslash
Encoding: 92 92 128
Width: 1024
VWidth: 1689
Flags: W
LayerCount: 2
Fore
SplineSet
768 64 m 1,0,-1
 768 256 l 1,1,-1
 448 256 l 1,2,-1
 448 384 l 1,3,-1
 768 384 l 1,4,-1
 896 384 l 1,5,-1
 896 256 l 1,6,-1
 896 64 l 1,7,-1
 896 0 l 2,8,9
 896 -159 896 -159 783.5 -271.5 c 128,-1,10
 671 -384 671 -384 512 -384 c 128,-1,11
 353 -384 353 -384 240.5 -271.5 c 128,-1,12
 128 -159 128 -159 128 0 c 2,13,14
 128 0 128 0 128 64 c 1,15,-1
 256 64 l 1,16,-1
 256 0 l 2,17,18
 256 -106 256 -106 331 -181 c 128,-1,19
 406 -256 406 -256 512 -256 c 128,-1,20
 618 -256 618 -256 693 -181 c 128,-1,21
 768 -106 768 -106 768 0 c 2,22,23
 768 0 768 0 768 64 c 1,0,-1
EndSplineSet
EndChar

StartChar: bracketright
Encoding: 93 93 129
Width: 1024
VWidth: 1689
Flags: W
LayerCount: 2
Fore
SplineSet
256 384 m 5,0,-1
 256 256 l 5,1,-1
 128 256 l 5,2,-1
 128 384 l 5,3,-1
 256 384 l 5,0,-1
768 64 m 5,4,-1
 768 256 l 5,5,-1
 448 256 l 5,6,-1
 448 384 l 5,7,-1
 768 384 l 5,8,-1
 896 384 l 5,9,-1
 896 256 l 5,10,-1
 896 64 l 5,11,-1
 896 0 l 6,12,13
 896 -159 896 -159 783.5 -271.5 c 132,-1,14
 671 -384 671 -384 512 -384 c 132,-1,15
 353 -384 353 -384 240.5 -271.5 c 132,-1,16
 128 -159 128 -159 128 0 c 6,17,18
 128 0 128 0 128 64 c 5,19,-1
 256 64 l 5,20,-1
 256 0 l 6,21,22
 256 -106 256 -106 331 -181 c 132,-1,23
 406 -256 406 -256 512 -256 c 132,-1,24
 618 -256 618 -256 693 -181 c 132,-1,25
 768 -106 768 -106 768 0 c 6,26,27
 768 0 768 0 768 64 c 5,4,-1
EndSplineSet
EndChar

StartChar: asciicircum
Encoding: 94 94 130
Width: 1024
VWidth: 1689
Flags: W
LayerCount: 2
Fore
SplineSet
448 256 m 1,0,-1
 256 256 l 1,1,-1
 256 -64 l 1,2,-1
 128 -64 l 1,3,-1
 128 256 l 1,4,-1
 128 384 l 1,5,-1
 256 384 l 1,6,-1
 448 384 l 1,7,-1
 512 384 l 2,8,9
 671 384 671 384 783.5 271.5 c 128,-1,10
 896 159 896 159 896 0 c 128,-1,11
 896 -159 896 -159 783.5 -271.5 c 128,-1,12
 671 -384 671 -384 512 -384 c 2,13,14
 512 -384 512 -384 448 -384 c 1,15,-1
 448 -256 l 1,16,-1
 512 -256 l 2,17,18
 618 -256 618 -256 693 -181 c 128,-1,19
 768 -106 768 -106 768 0 c 128,-1,20
 768 106 768 106 693 181 c 128,-1,21
 618 256 618 256 512 256 c 2,22,23
 512 256 512 256 448 256 c 1,0,-1
EndSplineSet
EndChar

StartChar: underscore
Encoding: 95 95 131
Width: 1024
VWidth: 1689
Flags: W
LayerCount: 2
Fore
SplineSet
128 -256 m 5,0,-1
 256 -256 l 5,1,-1
 256 -384 l 5,2,-1
 128 -384 l 5,3,-1
 128 -256 l 5,0,-1
448 256 m 5,4,-1
 256 256 l 5,5,-1
 256 -64 l 5,6,-1
 128 -64 l 5,7,-1
 128 256 l 5,8,-1
 128 384 l 5,9,-1
 256 384 l 5,10,-1
 448 384 l 5,11,-1
 512 384 l 6,12,13
 671 384 671 384 783.5 271.5 c 132,-1,14
 896 159 896 159 896 0 c 132,-1,15
 896 -159 896 -159 783.5 -271.5 c 132,-1,16
 671 -384 671 -384 512 -384 c 6,17,18
 512 -384 512 -384 448 -384 c 5,19,-1
 448 -256 l 5,20,-1
 512 -256 l 6,21,22
 618 -256 618 -256 693 -181 c 132,-1,23
 768 -106 768 -106 768 0 c 132,-1,24
 768 106 768 106 693 181 c 132,-1,25
 618 256 618 256 512 256 c 6,26,27
 512 256 512 256 448 256 c 5,4,-1
EndSplineSet
EndChar

StartChar: grave
Encoding: 96 96 132
Width: 1024
VWidth: 1689
Flags: W
LayerCount: 2
Fore
SplineSet
448 248 m 5,0,1
 382 232 382 232 331 181 c 4,2,3
 256 106 256 106 256 0 c 132,-1,4
 256 -106 256 -106 331 -181 c 4,5,6
 382 -232 382 -232 448 -248 c 5,7,-1
 448 248 l 5,0,1
576 -319 m 5,8,-1
 576 -384 l 5,9,-1
 512 -384 l 6,10,11
 353 -384 353 -384 240.5 -271.5 c 132,-1,12
 128 -159 128 -159 128 0 c 132,-1,13
 128 159 128 159 240.5 271.5 c 132,-1,14
 353 384 353 384 512 384 c 6,15,-1
 576 384 l 5,16,-1
 896 384 l 5,17,-1
 896 256 l 5,18,-1
 576 256 l 5,19,-1
 576 -256 l 5,20,-1
 576 -319 l 5,8,-1
EndSplineSet
Validated: 1025
EndChar

StartChar: a
Encoding: 97 97 133
Width: 1024
VWidth: 1689
Flags: W
LayerCount: 2
Fore
SplineSet
896 -256 m 5,0,-1
 896 -384 l 5,1,-1
 768 -384 l 5,2,-1
 768 -256 l 5,3,-1
 896 -256 l 5,0,-1
448 248 m 1,4,5
 382 232 382 232 331 181 c 0,6,7
 256 106 256 106 256 0 c 128,-1,8
 256 -106 256 -106 331 -181 c 0,9,10
 382 -232 382 -232 448 -248 c 1,11,-1
 448 248 l 1,4,5
576 -319 m 1,12,-1
 576 -384 l 1,13,-1
 512 -384 l 2,14,15
 353 -384 353 -384 240.5 -271.5 c 128,-1,16
 128 -159 128 -159 128 0 c 128,-1,17
 128 159 128 159 240.5 271.5 c 128,-1,18
 353 384 353 384 512 384 c 2,19,-1
 576 384 l 1,20,-1
 896 384 l 1,21,-1
 896 256 l 1,22,-1
 576 256 l 1,23,-1
 576 -256 l 1,24,-1
 576 -319 l 1,12,-1
EndSplineSet
EndChar

StartChar: b
Encoding: 98 98 134
Width: 1024
VWidth: 1689
Flags: W
LayerCount: 2
Fore
SplineSet
264 -64 m 5,0,1
 280 -130 280 -130 331 -181 c 4,2,3
 406 -256 406 -256 512 -256 c 132,-1,4
 618 -256 618 -256 693 -181 c 4,5,6
 744 -130 744 -130 760 -64 c 5,7,-1
 264 -64 l 5,0,1
831 64 m 5,8,-1
 896 64 l 5,9,-1
 896 0 l 6,10,11
 896 -159 896 -159 783.5 -271.5 c 132,-1,12
 671 -384 671 -384 512 -384 c 132,-1,13
 353 -384 353 -384 240.5 -271.5 c 132,-1,14
 128 -159 128 -159 128 0 c 6,15,-1
 128 64 l 5,16,-1
 128 384 l 5,17,-1
 256 384 l 5,18,-1
 256 64 l 5,19,-1
 768 64 l 5,20,-1
 831 64 l 5,8,-1
EndSplineSet
EndChar

StartChar: c
Encoding: 99 99 135
Width: 1024
VWidth: 1689
Flags: W
LayerCount: 2
Fore
SplineSet
768 384 m 5,0,-1
 896 384 l 5,1,-1
 896 256 l 5,2,-1
 768 256 l 5,3,-1
 768 384 l 5,0,-1
264 -64 m 1,4,5
 280 -130 280 -130 331 -181 c 0,6,7
 406 -256 406 -256 512 -256 c 128,-1,8
 618 -256 618 -256 693 -181 c 0,9,10
 744 -130 744 -130 760 -64 c 1,11,-1
 264 -64 l 1,4,5
831 64 m 1,12,-1
 896 64 l 1,13,-1
 896 0 l 2,14,15
 896 -159 896 -159 783.5 -271.5 c 128,-1,16
 671 -384 671 -384 512 -384 c 128,-1,17
 353 -384 353 -384 240.5 -271.5 c 128,-1,18
 128 -159 128 -159 128 0 c 2,19,-1
 128 64 l 1,20,-1
 128 384 l 1,21,-1
 256 384 l 1,22,-1
 256 64 l 1,23,-1
 768 64 l 1,24,-1
 831 64 l 1,12,-1
EndSplineSet
EndChar

StartChar: d
Encoding: 100 100 136
Width: 1024
VWidth: 1689
Flags: W
LayerCount: 2
Fore
SplineSet
576 -248 m 5,0,1
 642 -232 642 -232 693 -181 c 4,2,3
 768 -106 768 -106 768 0 c 132,-1,4
 768 106 768 106 693 181 c 4,5,6
 642 232 642 232 576 248 c 5,7,-1
 576 -248 l 5,0,1
448 319 m 5,8,-1
 448 384 l 5,9,-1
 512 384 l 6,10,11
 671 384 671 384 783.5 271.5 c 132,-1,12
 896 159 896 159 896 0 c 132,-1,13
 896 -159 896 -159 783.5 -271.5 c 132,-1,14
 671 -384 671 -384 512 -384 c 6,15,-1
 448 -384 l 5,16,-1
 128 -384 l 5,17,-1
 128 -256 l 5,18,-1
 448 -256 l 5,19,-1
 448 256 l 5,20,-1
 448 319 l 5,8,-1
EndSplineSet
EndChar

StartChar: e
Encoding: 101 101 137
Width: 1024
VWidth: 1689
Flags: W
LayerCount: 2
Fore
SplineSet
128 256 m 5,0,-1
 128 384 l 5,1,-1
 256 384 l 5,2,-1
 256 256 l 5,3,-1
 128 256 l 5,0,-1
576 -248 m 1,4,5
 642 -232 642 -232 693 -181 c 0,6,7
 768 -106 768 -106 768 0 c 128,-1,8
 768 106 768 106 693 181 c 0,9,10
 642 232 642 232 576 248 c 1,11,-1
 576 -248 l 1,4,5
448 319 m 1,12,-1
 448 384 l 1,13,-1
 512 384 l 2,14,15
 671 384 671 384 783.5 271.5 c 128,-1,16
 896 159 896 159 896 0 c 128,-1,17
 896 -159 896 -159 783.5 -271.5 c 128,-1,18
 671 -384 671 -384 512 -384 c 2,19,-1
 448 -384 l 1,20,-1
 128 -384 l 1,21,-1
 128 -256 l 1,22,-1
 448 -256 l 1,23,-1
 448 256 l 1,24,-1
 448 319 l 1,12,-1
EndSplineSet
EndChar

StartChar: f
Encoding: 102 102 138
Width: 1024
VWidth: 1689
Flags: W
LayerCount: 2
Fore
SplineSet
760 64 m 5,0,1
 744 130 744 130 693 181 c 4,2,3
 618 256 618 256 512 256 c 132,-1,4
 406 256 406 256 331 181 c 4,5,6
 280 130 280 130 264 64 c 5,7,-1
 760 64 l 5,0,1
193 -64 m 5,8,-1
 128 -64 l 5,9,-1
 128 0 l 6,10,11
 128 159 128 159 240.5 271.5 c 132,-1,12
 353 384 353 384 512 384 c 132,-1,13
 671 384 671 384 783.5 271.5 c 132,-1,14
 896 159 896 159 896 0 c 6,15,-1
 896 -64 l 5,16,-1
 896 -384 l 5,17,-1
 768 -384 l 5,18,-1
 768 -64 l 5,19,-1
 256 -64 l 5,20,-1
 193 -64 l 5,8,-1
EndSplineSet
EndChar

StartChar: g
Encoding: 103 103 139
Width: 1024
VWidth: 1689
Flags: W
LayerCount: 2
Fore
SplineSet
256 -384 m 5,0,-1
 128 -384 l 5,1,-1
 128 -256 l 5,2,-1
 256 -256 l 5,3,-1
 256 -384 l 5,0,-1
760 64 m 1,4,5
 744 130 744 130 693 181 c 0,6,7
 618 256 618 256 512 256 c 128,-1,8
 406 256 406 256 331 181 c 0,9,10
 280 130 280 130 264 64 c 1,11,-1
 760 64 l 1,4,5
193 -64 m 1,12,-1
 128 -64 l 1,13,-1
 128 0 l 2,14,15
 128 159 128 159 240.5 271.5 c 128,-1,16
 353 384 353 384 512 384 c 128,-1,17
 671 384 671 384 783.5 271.5 c 128,-1,18
 896 159 896 159 896 0 c 2,19,-1
 896 -64 l 1,20,-1
 896 -384 l 1,21,-1
 768 -384 l 1,22,-1
 768 -64 l 1,23,-1
 256 -64 l 1,24,-1
 193 -64 l 1,12,-1
EndSplineSet
EndChar

StartChar: h
Encoding: 104 104 140
Width: 1024
VWidth: 1689
Flags: W
LayerCount: 2
Fore
SplineSet
264 64 m 1,0,1
 264 64 264 64 760 64 c 1,2,3
 744 130 744 130 693 181 c 0,4,5
 618 256 618 256 512 256 c 128,-1,6
 406 256 406 256 331 181 c 0,7,8
 280 130 280 130 264 64 c 1,0,1
256 -64 m 5,9,-1
 256 -384 l 1,10,-1
 128 -384 l 1,11,-1
 128 -64 l 1,12,-1
 128 0 l 2,13,14
 128 159 128 159 240.5 271.5 c 128,-1,15
 353 384 353 384 512 384 c 128,-1,16
 671 384 671 384 783.5 271.5 c 128,-1,17
 896 159 896 159 896 0 c 2,18,19
 896 0 896 0 896 -64 c 5,20,-1
 256 -64 l 5,9,-1
EndSplineSet
EndChar

StartChar: i
Encoding: 105 105 141
Width: 1024
VWidth: 1689
Flags: W
LayerCount: 2
Fore
SplineSet
768 -384 m 5,0,-1
 768 -256 l 5,1,-1
 896 -256 l 5,2,-1
 896 -384 l 5,3,-1
 768 -384 l 5,0,-1
264 64 m 5,4,5
 264 64 264 64 760 64 c 5,6,7
 744 130 744 130 693 181 c 4,8,9
 618 256 618 256 512 256 c 132,-1,10
 406 256 406 256 331 181 c 4,11,12
 280 130 280 130 264 64 c 5,4,5
831 -64 m 5,13,-1
 768 -64 l 5,14,-1
 256 -64 l 5,15,-1
 256 -384 l 5,16,-1
 128 -384 l 5,17,-1
 128 -64 l 5,18,-1
 128 0 l 6,19,20
 128 159 128 159 240.5 271.5 c 132,-1,21
 353 384 353 384 512 384 c 132,-1,22
 671 384 671 384 783.5 271.5 c 132,-1,23
 896 159 896 159 896 0 c 6,24,25
 896 0 896 0 896 -64 c 5,26,-1
 831 -64 l 5,13,-1
EndSplineSet
EndChar

StartChar: j
Encoding: 106 106 142
Width: 1024
VWidth: 1689
Flags: W
LayerCount: 2
Fore
SplineSet
448 -248 m 1,0,1
 448 -248 448 -248 448 248 c 1,2,3
 382 232 382 232 331 181 c 0,4,5
 256 106 256 106 256 0 c 128,-1,6
 256 -106 256 -106 331 -181 c 0,7,8
 382 -232 382 -232 448 -248 c 1,0,1
576 -256 m 5,9,-1
 896 -256 l 1,10,-1
 896 -384 l 1,11,-1
 576 -384 l 1,12,-1
 512 -384 l 2,13,14
 353 -384 353 -384 240.5 -271.5 c 128,-1,15
 128 -159 128 -159 128 0 c 128,-1,16
 128 159 128 159 240.5 271.5 c 128,-1,17
 353 384 353 384 512 384 c 2,18,19
 512 384 512 384 576 384 c 5,20,-1
 576 -256 l 5,9,-1
EndSplineSet
EndChar

StartChar: k
Encoding: 107 107 143
Width: 1024
VWidth: 1689
Flags: W
LayerCount: 2
Fore
SplineSet
896 256 m 5,0,-1
 768 256 l 5,1,-1
 768 384 l 5,2,-1
 896 384 l 5,3,-1
 896 256 l 5,0,-1
448 -248 m 5,4,5
 448 -248 448 -248 448 248 c 5,6,7
 382 232 382 232 331 181 c 4,8,9
 256 106 256 106 256 0 c 132,-1,10
 256 -106 256 -106 331 -181 c 4,11,12
 382 -232 382 -232 448 -248 c 5,4,5
576 319 m 5,13,-1
 576 256 l 5,14,-1
 576 -256 l 5,15,-1
 896 -256 l 5,16,-1
 896 -384 l 5,17,-1
 576 -384 l 5,18,-1
 512 -384 l 6,19,20
 353 -384 353 -384 240.5 -271.5 c 132,-1,21
 128 -159 128 -159 128 0 c 132,-1,22
 128 159 128 159 240.5 271.5 c 132,-1,23
 353 384 353 384 512 384 c 6,24,25
 512 384 512 384 576 384 c 5,26,-1
 576 319 l 5,13,-1
EndSplineSet
EndChar

StartChar: l
Encoding: 108 108 144
Width: 1024
VWidth: 1689
Flags: W
LayerCount: 2
Fore
SplineSet
760 -64 m 1,0,1
 760 -64 760 -64 264 -64 c 1,2,3
 280 -130 280 -130 331 -181 c 0,4,5
 406 -256 406 -256 512 -256 c 128,-1,6
 618 -256 618 -256 693 -181 c 0,7,8
 744 -130 744 -130 760 -64 c 1,0,1
768 64 m 5,9,-1
 768 384 l 1,10,-1
 896 384 l 1,11,-1
 896 64 l 1,12,-1
 896 0 l 2,13,14
 896 -159 896 -159 783.5 -271.5 c 128,-1,15
 671 -384 671 -384 512 -384 c 128,-1,16
 353 -384 353 -384 240.5 -271.5 c 128,-1,17
 128 -159 128 -159 128 0 c 2,18,19
 128 0 128 0 128 64 c 5,20,-1
 768 64 l 5,9,-1
EndSplineSet
EndChar

StartChar: m
Encoding: 109 109 145
Width: 1024
VWidth: 1689
Flags: W
LayerCount: 2
Fore
SplineSet
256 384 m 5,0,-1
 256 256 l 5,1,-1
 128 256 l 5,2,-1
 128 384 l 5,3,-1
 256 384 l 5,0,-1
760 -64 m 5,4,5
 760 -64 760 -64 264 -64 c 5,6,7
 280 -130 280 -130 331 -181 c 4,8,9
 406 -256 406 -256 512 -256 c 132,-1,10
 618 -256 618 -256 693 -181 c 4,11,12
 744 -130 744 -130 760 -64 c 5,4,5
193 64 m 5,13,-1
 256 64 l 5,14,-1
 768 64 l 5,15,-1
 768 384 l 5,16,-1
 896 384 l 5,17,-1
 896 64 l 5,18,-1
 896 0 l 6,19,20
 896 -159 896 -159 783.5 -271.5 c 132,-1,21
 671 -384 671 -384 512 -384 c 132,-1,22
 353 -384 353 -384 240.5 -271.5 c 132,-1,23
 128 -159 128 -159 128 0 c 6,24,25
 128 0 128 0 128 64 c 5,26,-1
 193 64 l 5,13,-1
EndSplineSet
EndChar

StartChar: n
Encoding: 110 110 146
Width: 1024
VWidth: 1689
Flags: W
LayerCount: 2
Fore
SplineSet
576 248 m 1,0,1
 576 248 576 248 576 -248 c 1,2,3
 642 -232 642 -232 693 -181 c 0,4,5
 768 -106 768 -106 768 0 c 128,-1,6
 768 106 768 106 693 181 c 0,7,8
 642 232 642 232 576 248 c 1,0,1
448 256 m 5,9,-1
 128 256 l 1,10,-1
 128 384 l 1,11,-1
 448 384 l 1,12,-1
 512 384 l 2,13,14
 671 384 671 384 783.5 271.5 c 128,-1,15
 896 159 896 159 896 0 c 128,-1,16
 896 -159 896 -159 783.5 -271.5 c 128,-1,17
 671 -384 671 -384 512 -384 c 2,18,19
 512 -384 512 -384 448 -384 c 5,20,-1
 448 256 l 5,9,-1
EndSplineSet
EndChar

StartChar: o
Encoding: 111 111 147
Width: 1024
VWidth: 1689
Flags: W
LayerCount: 2
Fore
SplineSet
128 -256 m 5,0,-1
 256 -256 l 5,1,-1
 256 -384 l 5,2,-1
 128 -384 l 5,3,-1
 128 -256 l 5,0,-1
576 248 m 5,4,5
 576 248 576 248 576 -248 c 5,6,7
 642 -232 642 -232 693 -181 c 4,8,9
 768 -106 768 -106 768 0 c 132,-1,10
 768 106 768 106 693 181 c 4,11,12
 642 232 642 232 576 248 c 5,4,5
448 -319 m 5,13,-1
 448 -256 l 5,14,-1
 448 256 l 5,15,-1
 128 256 l 5,16,-1
 128 384 l 5,17,-1
 448 384 l 5,18,-1
 512 384 l 6,19,20
 671 384 671 384 783.5 271.5 c 132,-1,21
 896 159 896 159 896 0 c 132,-1,22
 896 -159 896 -159 783.5 -271.5 c 132,-1,23
 671 -384 671 -384 512 -384 c 6,24,25
 512 -384 512 -384 448 -384 c 5,26,-1
 448 -319 l 5,13,-1
EndSplineSet
EndChar

StartChar: p
Encoding: 112 112 148
Width: 1024
VWidth: 1689
Flags: W
LayerCount: 2
Fore
SplineSet
448 -248 m 5,0,-1
 448 384 l 5,1,-1
 576 384 l 5,2,-1
 896 384 l 5,3,-1
 896 256 l 5,4,-1
 576 256 l 5,5,-1
 576 -256 l 5,6,-1
 576 -384 l 5,7,-1
 512 -384 l 6,8,9
 353 -384 353 -384 240.5 -271.5 c 132,-1,10
 128 -159 128 -159 128 0 c 6,11,-1
 128 64 l 5,12,-1
 256 64 l 5,13,-1
 256 0 l 6,14,15
 256 -106 256 -106 331 -181 c 4,16,17
 382 -232 382 -232 448 -248 c 5,0,-1
EndSplineSet
Validated: 1
EndChar

StartChar: q
Encoding: 113 113 149
Width: 1024
VWidth: 1689
Flags: W
LayerCount: 2
Fore
SplineSet
896 -256 m 1,0,-1
 896 -384 l 1,1,-1
 768 -384 l 1,2,-1
 768 -256 l 1,3,-1
 896 -256 l 1,0,-1
448 -248 m 1,4,-1
 448 384 l 1,5,-1
 576 384 l 1,6,-1
 896 384 l 1,7,-1
 896 256 l 1,8,-1
 576 256 l 1,9,-1
 576 -256 l 1,10,-1
 576 -384 l 1,11,-1
 512 -384 l 2,12,13
 353 -384 353 -384 240.5 -271.5 c 128,-1,14
 128 -159 128 -159 128 0 c 2,15,-1
 128 64 l 1,16,-1
 256 64 l 1,17,-1
 256 0 l 2,18,19
 256 -106 256 -106 331 -181 c 0,20,21
 382 -232 382 -232 448 -248 c 1,4,-1
EndSplineSet
EndChar

StartChar: r
Encoding: 114 114 150
Width: 1024
VWidth: 1689
Flags: W
LayerCount: 2
Fore
SplineSet
760 -64 m 5,0,-1
 128 -64 l 5,1,-1
 128 64 l 5,2,-1
 128 384 l 5,3,-1
 256 384 l 5,4,-1
 256 64 l 5,5,-1
 768 64 l 5,6,-1
 896 64 l 5,7,-1
 896 0 l 6,8,9
 896 -159 896 -159 783.5 -271.5 c 132,-1,10
 671 -384 671 -384 512 -384 c 6,11,-1
 448 -384 l 5,12,-1
 448 -256 l 5,13,-1
 512 -256 l 6,14,15
 618 -256 618 -256 693 -181 c 4,16,17
 744 -130 744 -130 760 -64 c 5,0,-1
EndSplineSet
EndChar

StartChar: s
Encoding: 115 115 151
Width: 1024
VWidth: 1689
Flags: W
LayerCount: 2
Fore
SplineSet
768 384 m 1,0,-1
 896 384 l 1,1,-1
 896 256 l 1,2,-1
 768 256 l 1,3,-1
 768 384 l 1,0,-1
760 -64 m 1,4,-1
 128 -64 l 1,5,-1
 128 64 l 1,6,-1
 128 384 l 1,7,-1
 256 384 l 1,8,-1
 256 64 l 1,9,-1
 768 64 l 1,10,-1
 896 64 l 1,11,-1
 896 0 l 2,12,13
 896 -159 896 -159 783.5 -271.5 c 128,-1,14
 671 -384 671 -384 512 -384 c 2,15,-1
 448 -384 l 1,16,-1
 448 -256 l 1,17,-1
 512 -256 l 2,18,19
 618 -256 618 -256 693 -181 c 0,20,21
 744 -130 744 -130 760 -64 c 1,4,-1
EndSplineSet
EndChar

StartChar: t
Encoding: 116 116 152
Width: 1024
VWidth: 1689
Flags: W
LayerCount: 2
Fore
SplineSet
576 248 m 5,0,-1
 576 -384 l 5,1,-1
 448 -384 l 5,2,-1
 128 -384 l 5,3,-1
 128 -256 l 5,4,-1
 448 -256 l 5,5,-1
 448 256 l 5,6,-1
 448 384 l 5,7,-1
 512 384 l 6,8,9
 671 384 671 384 783.5 271.5 c 132,-1,10
 896 159 896 159 896 0 c 6,11,-1
 896 -64 l 5,12,-1
 768 -64 l 5,13,-1
 768 0 l 6,14,15
 768 106 768 106 693 181 c 4,16,17
 642 232 642 232 576 248 c 5,0,-1
EndSplineSet
EndChar

StartChar: u
Encoding: 117 117 153
Width: 1024
VWidth: 1689
Flags: W
LayerCount: 2
Fore
SplineSet
128 256 m 1,0,-1
 128 384 l 1,1,-1
 256 384 l 1,2,-1
 256 256 l 1,3,-1
 128 256 l 1,0,-1
576 248 m 1,4,-1
 576 -384 l 1,5,-1
 448 -384 l 1,6,-1
 128 -384 l 1,7,-1
 128 -256 l 1,8,-1
 448 -256 l 1,9,-1
 448 256 l 1,10,-1
 448 384 l 1,11,-1
 512 384 l 2,12,13
 671 384 671 384 783.5 271.5 c 128,-1,14
 896 159 896 159 896 0 c 2,15,-1
 896 -64 l 1,16,-1
 768 -64 l 1,17,-1
 768 0 l 2,18,19
 768 106 768 106 693 181 c 0,20,21
 642 232 642 232 576 248 c 1,4,-1
EndSplineSet
EndChar

StartChar: v
Encoding: 118 118 154
Width: 1024
VWidth: 1689
Flags: W
LayerCount: 2
Fore
SplineSet
264 64 m 5,0,-1
 896 64 l 5,1,-1
 896 -64 l 5,2,-1
 896 -384 l 5,3,-1
 768 -384 l 5,4,-1
 768 -64 l 5,5,-1
 256 -64 l 5,6,-1
 128 -64 l 5,7,-1
 128 0 l 6,8,9
 128 159 128 159 240.5 271.5 c 132,-1,10
 353 384 353 384 512 384 c 6,11,-1
 576 384 l 5,12,-1
 576 256 l 5,13,-1
 512 256 l 6,14,15
 406 256 406 256 331 181 c 4,16,17
 280 130 280 130 264 64 c 5,0,-1
EndSplineSet
EndChar

StartChar: w
Encoding: 119 119 155
Width: 1024
VWidth: 1689
Flags: W
LayerCount: 2
Fore
SplineSet
256 -384 m 1,0,-1
 128 -384 l 1,1,-1
 128 -256 l 1,2,-1
 256 -256 l 1,3,-1
 256 -384 l 1,0,-1
264 64 m 1,4,-1
 896 64 l 1,5,-1
 896 -64 l 1,6,-1
 896 -384 l 1,7,-1
 768 -384 l 1,8,-1
 768 -64 l 1,9,-1
 256 -64 l 1,10,-1
 128 -64 l 1,11,-1
 128 0 l 2,12,13
 128 159 128 159 240.5 271.5 c 128,-1,14
 353 384 353 384 512 384 c 2,15,-1
 576 384 l 1,16,-1
 576 256 l 1,17,-1
 512 256 l 2,18,19
 406 256 406 256 331 181 c 0,20,21
 280 130 280 130 264 64 c 1,4,-1
EndSplineSet
EndChar

StartChar: x
Encoding: 120 120 156
Width: 1024
VWidth: 1689
Flags: W
LayerCount: 2
Fore
SplineSet
760 64 m 1,0,1
 744 130 744 130 693 181 c 0,2,3
 618 256 618 256 512 256 c 2,4,5
 512 256 512 256 448 256 c 1,6,-1
 448 384 l 1,7,-1
 512 384 l 2,8,9
 671 384 671 384 783.5 271.5 c 128,-1,10
 896 159 896 159 896 0 c 2,11,12
 896 0 896 0 896 -64 c 1,13,-1
 768 -64 l 1,14,-1
 256 -64 l 1,15,-1
 256 -384 l 1,16,-1
 128 -384 l 1,17,-1
 128 -64 l 1,18,-1
 128 64 l 1,19,-1
 760 64 l 1,0,1
EndSplineSet
EndChar

StartChar: y
Encoding: 121 121 157
Width: 1024
VWidth: 1689
Flags: W
LayerCount: 2
Fore
SplineSet
768 -384 m 1,0,-1
 768 -256 l 1,1,-1
 896 -256 l 1,2,-1
 896 -384 l 1,3,-1
 768 -384 l 1,0,-1
760 64 m 1,4,5
 744 130 744 130 693 181 c 0,6,7
 618 256 618 256 512 256 c 2,8,9
 512 256 512 256 448 256 c 1,10,-1
 448 384 l 1,11,-1
 512 384 l 2,12,13
 671 384 671 384 783.5 271.5 c 128,-1,14
 896 159 896 159 896 0 c 2,15,16
 896 0 896 0 896 -64 c 1,17,-1
 768 -64 l 1,18,-1
 256 -64 l 1,19,-1
 256 -384 l 1,20,-1
 128 -384 l 1,21,-1
 128 -64 l 1,22,-1
 128 64 l 1,23,-1
 760 64 l 1,4,5
EndSplineSet
EndChar

StartChar: z
Encoding: 122 122 158
Width: 1024
VWidth: 1689
Flags: W
LayerCount: 2
Fore
SplineSet
448 248 m 1,0,1
 382 232 382 232 331 181 c 0,2,3
 256 106 256 106 256 0 c 2,4,5
 256 0 256 0 256 -64 c 1,6,-1
 128 -64 l 1,7,-1
 128 0 l 2,8,9
 128 159 128 159 240.5 271.5 c 128,-1,10
 353 384 353 384 512 384 c 2,11,12
 512 384 512 384 576 384 c 1,13,-1
 576 256 l 1,14,-1
 576 -256 l 1,15,-1
 896 -256 l 1,16,-1
 896 -384 l 1,17,-1
 576 -384 l 1,18,-1
 448 -384 l 1,19,-1
 448 248 l 1,0,1
EndSplineSet
EndChar

StartChar: braceleft
Encoding: 123 123 159
Width: 1024
VWidth: 1689
Flags: W
LayerCount: 2
Fore
SplineSet
896 256 m 1,0,-1
 768 256 l 1,1,-1
 768 384 l 1,2,-1
 896 384 l 1,3,-1
 896 256 l 1,0,-1
448 248 m 1,4,5
 382 232 382 232 331 181 c 0,6,7
 256 106 256 106 256 0 c 2,8,9
 256 0 256 0 256 -64 c 1,10,-1
 128 -64 l 1,11,-1
 128 0 l 2,12,13
 128 159 128 159 240.5 271.5 c 128,-1,14
 353 384 353 384 512 384 c 2,15,16
 512 384 512 384 576 384 c 1,17,-1
 576 256 l 1,18,-1
 576 -256 l 1,19,-1
 896 -256 l 1,20,-1
 896 -384 l 1,21,-1
 576 -384 l 1,22,-1
 448 -384 l 1,23,-1
 448 248 l 1,4,5
EndSplineSet
EndChar

StartChar: bar
Encoding: 124 124 160
Width: 1024
VWidth: 1689
Flags: W
LayerCount: 2
Fore
SplineSet
264 -64 m 1,0,1
 280 -130 280 -130 331 -181 c 0,2,3
 406 -256 406 -256 512 -256 c 2,4,5
 512 -256 512 -256 576 -256 c 1,6,-1
 576 -384 l 1,7,-1
 512 -384 l 2,8,9
 353 -384 353 -384 240.5 -271.5 c 128,-1,10
 128 -159 128 -159 128 0 c 2,11,12
 128 0 128 0 128 64 c 1,13,-1
 256 64 l 1,14,-1
 768 64 l 1,15,-1
 768 384 l 1,16,-1
 896 384 l 1,17,-1
 896 64 l 1,18,-1
 896 -64 l 1,19,-1
 264 -64 l 1,0,1
EndSplineSet
EndChar

StartChar: braceright
Encoding: 125 125 161
Width: 1024
VWidth: 1689
Flags: W
LayerCount: 2
Fore
SplineSet
256 384 m 1,0,-1
 256 256 l 1,1,-1
 128 256 l 1,2,-1
 128 384 l 1,3,-1
 256 384 l 1,0,-1
264 -64 m 1,4,5
 280 -130 280 -130 331 -181 c 0,6,7
 406 -256 406 -256 512 -256 c 2,8,9
 512 -256 512 -256 576 -256 c 1,10,-1
 576 -384 l 1,11,-1
 512 -384 l 2,12,13
 353 -384 353 -384 240.5 -271.5 c 128,-1,14
 128 -159 128 -159 128 0 c 2,15,16
 128 0 128 0 128 64 c 1,17,-1
 256 64 l 1,18,-1
 768 64 l 1,19,-1
 768 384 l 1,20,-1
 896 384 l 1,21,-1
 896 64 l 1,22,-1
 896 -64 l 1,23,-1
 264 -64 l 1,4,5
EndSplineSet
EndChar

StartChar: asciitilde
Encoding: 126 126 162
Width: 1024
VWidth: 1689
Flags: W
LayerCount: 2
Fore
SplineSet
576 -248 m 1,0,1
 642 -232 642 -232 693 -181 c 0,2,3
 768 -106 768 -106 768 0 c 2,4,5
 768 0 768 0 768 64 c 1,6,-1
 896 64 l 1,7,-1
 896 0 l 2,8,9
 896 -159 896 -159 783.5 -271.5 c 128,-1,10
 671 -384 671 -384 512 -384 c 2,11,12
 512 -384 512 -384 448 -384 c 1,13,-1
 448 -256 l 1,14,-1
 448 256 l 1,15,-1
 128 256 l 1,16,-1
 128 384 l 1,17,-1
 448 384 l 1,18,-1
 576 384 l 1,19,-1
 576 -248 l 1,0,1
EndSplineSet
EndChar

StartChar: uni007F
Encoding: 127 127 163
Width: 1024
VWidth: 1689
Flags: W
LayerCount: 2
Fore
SplineSet
128 -256 m 1,0,-1
 256 -256 l 1,1,-1
 256 -384 l 1,2,-1
 128 -384 l 1,3,-1
 128 -256 l 1,0,-1
576 -248 m 1,4,5
 642 -232 642 -232 693 -181 c 0,6,7
 768 -106 768 -106 768 0 c 2,8,9
 768 0 768 0 768 64 c 1,10,-1
 896 64 l 1,11,-1
 896 0 l 2,12,13
 896 -159 896 -159 783.5 -271.5 c 128,-1,14
 671 -384 671 -384 512 -384 c 2,15,16
 512 -384 512 -384 448 -384 c 1,17,-1
 448 -256 l 1,18,-1
 448 256 l 1,19,-1
 128 256 l 1,20,-1
 128 384 l 1,21,-1
 448 384 l 1,22,-1
 576 384 l 1,23,-1
 576 -248 l 1,4,5
EndSplineSet
EndChar

StartChar: period
Encoding: 46 46 164
Width: 1024
VWidth: 1689
Flags: W
LayerCount: 2
Fore
SplineSet
448 256 m 5,0,-1
 576 256 l 5,1,-1
 576 -256 l 5,2,-1
 448 -256 l 5,3,-1
 448 256 l 5,0,-1
EndSplineSet
Validated: 1
EndChar

StartChar: comma
Encoding: 44 44 165
Width: 1024
VWidth: 1689
Flags: W
LayerCount: 2
Fore
SplineSet
448 64 m 1,0,-1
 576 64 l 1,1,-1
 576 -64 l 5,2,-1
 448 -64 l 5,3,-1
 448 64 l 1,0,-1
EndSplineSet
Validated: 1
EndChar

StartChar: agrave
Encoding: 224 224 166
Width: 1024
VWidth: 1689
Flags: W
LayerCount: 2
Fore
SplineSet
576 64 m 5,0,-1
 896 64 l 5,1,-1
 896 -64 l 5,2,-1
 576 -64 l 5,3,-1
 576 -385 l 5,4,-1
 448 -384 l 5,5,-1
 448 -64 l 5,6,-1
 127 -64 l 5,7,-1
 128 64 l 5,8,-1
 448 64 l 5,9,-1
 448 384 l 5,10,-1
 576 384 l 5,11,-1
 576 64 l 5,0,-1
EndSplineSet
Validated: 1
EndChar

StartChar: aacute
Encoding: 225 225 167
Width: 1024
VWidth: 1689
Flags: W
LayerCount: 2
Fore
SplineSet
256 0 m 132,-1,1
 256 -106 256 -106 331 -181 c 132,-1,2
 406 -256 406 -256 512 -256 c 132,-1,3
 618 -256 618 -256 693 -181 c 132,-1,4
 768 -106 768 -106 768 0 c 132,-1,5
 768 106 768 106 693 181 c 132,-1,6
 618 256 618 256 512 256 c 132,-1,7
 406 256 406 256 331 181 c 132,-1,0
 256 106 256 106 256 0 c 132,-1,1
128 0 m 132,-1,9
 128 159 128 159 240.5 271.5 c 132,-1,10
 353 384 353 384 512 384 c 132,-1,11
 671 384 671 384 783.5 271.5 c 132,-1,12
 896 159 896 159 896 0 c 132,-1,13
 896 -159 896 -159 783.5 -271.5 c 132,-1,14
 671 -384 671 -384 512 -384 c 132,-1,15
 353 -384 353 -384 240.5 -271.5 c 132,-1,8
 128 -159 128 -159 128 0 c 132,-1,9
EndSplineSet
Validated: 1
EndChar

StartChar: acircumflex
Encoding: 226 226 168
Width: 1024
VWidth: 1689
Flags: W
LayerCount: 2
Fore
SplineSet
128 64 m 1,0,-1
 256 64 l 1,1,-1
 256 0 l 2,2,3
 256 -106 256 -106 331 -181 c 128,-1,4
 406 -256 406 -256 512 -256 c 128,-1,5
 618 -256 618 -256 693 -181 c 128,-1,6
 768 -106 768 -106 768 0 c 2,7,-1
 768 64 l 1,8,-1
 896 64 l 1,9,-1
 896 0 l 2,10,11
 896 -159 896 -159 783.5 -271.5 c 128,-1,12
 671 -384 671 -384 512 -384 c 128,-1,13
 353 -384 353 -384 240.5 -271.5 c 128,-1,14
 128 -159 128 -159 128 0 c 2,15,-1
 128 64 l 1,0,-1
EndSplineSet
Validated: 1
EndChar
